<?xml version="1.0" encoding="utf-8"?>
<!-- Generator: Adobe Illustrator 16.0.0, SVG Export Plug-In . SVG Version: 6.00 Build 0)  -->
<!DOCTYPE svg PUBLIC "-//W3C//DTD SVG 1.1//EN" "http://www.w3.org/Graphics/SVG/1.1/DTD/svg11.dtd">
<svg version="1.1" id="Layer_1" xmlns="http://www.w3.org/2000/svg" xmlns:xlink="http://www.w3.org/1999/xlink" x="0px" y="0px"
	 width="1200px" height="350px" viewBox="0 0 1200 350" enable-background="new 0 0 1200 350" xml:space="preserve">
<rect x="0" y="0.87" opacity="0.4" enable-background="new    " width="1199.649" height="349.456"/>
<path opacity="0.5" fill="none" stroke="#020202" stroke-width="0.5" enable-background="new    " d="M9.364,349.361
	c-2.775-2.762-5.552-5.525-8.324-8.291"/>
<path opacity="0.5" fill="none" stroke="#020202" stroke-width="0.5" enable-background="new    " d="M18.476,349.475
	c-5.763-5.621-11.515-11.252-17.258-16.893"/>
<path opacity="0.5" fill="none" stroke="#020202" stroke-width="0.5" enable-background="new    " d="M27.971,349.471
	c-8.853-8.854-17.706-17.707-26.559-26.56"/>
<path opacity="0.5" fill="none" stroke="#020202" stroke-width="0.5" enable-background="new    " d="M36.803,349.303
	c-11.793-11.795-23.587-23.588-35.381-35.382"/>
<path opacity="0.5" fill="none" stroke="#020202" stroke-width="0.5" enable-background="new    " d="M46.298,349.296
	C31.245,334.46,16.218,319.6,1.213,304.715"/>
<path opacity="0.5" fill="none" stroke="#020202" stroke-width="0.5" enable-background="new    " d="M55.331,349.329
	c-18.115-18.029-36.224-36.065-54.322-54.11"/>
<path opacity="0.5" fill="none" stroke="#020202" stroke-width="0.5" enable-background="new    " d="M64.824,349.322
	c-21.219-21.217-42.436-42.436-63.651-63.651"/>
<path opacity="0.5" fill="none" stroke="#020202" stroke-width="0.5" enable-background="new    " d="M73.802,349.3
	c-24.177-24.178-48.355-48.354-72.532-72.532"/>
<path opacity="0.5" fill="none" stroke="#020202" stroke-width="0.5" enable-background="new    " d="M83.293,349.292
	c-27.404-27.278-54.764-54.604-82.097-81.955"/>
<path opacity="0.5" fill="none" stroke="#020202" stroke-width="0.5" enable-background="new    " d="M92.445,349.443
	c-30.294-30.43-60.681-60.77-91.099-91.074"/>
<path opacity="0.5" fill="none" stroke="#020202" stroke-width="0.5" enable-background="new    " d="M101.935,349.434
	C68.502,316,34.502,282,1.355,248.854"/>
<path opacity="0.5" fill="none" stroke="#020202" stroke-width="0.5" enable-background="new    " d="M110.77,349.268
	C74.502,313,37.502,276,1.247,239.745"/>
<path opacity="0.5" fill="none" stroke="#020202" stroke-width="0.5" enable-background="new    " d="M120.495,349.493
	C80.502,310,40.502,270,1.058,229.717"/>
<path opacity="0.5" fill="none" stroke="#020202" stroke-width="0.5" enable-background="new    " d="M129.476,349.475
	C85.502,308,44.502,264,1.334,221.62"/>
<path opacity="0.5" fill="none" stroke="#020202" stroke-width="0.5" enable-background="new    " d="M138.961,349.459
	C92.502,303,47.502,258,1.064,211.563"/>
<path opacity="0.5" fill="none" stroke="#020202" stroke-width="0.5" enable-background="new    " d="M147.84,349.338
	C98.502,300,50.502,252,1.108,202.605"/>
<path opacity="0.5" fill="none" stroke="#020202" stroke-width="0.5" enable-background="new    " d="M157.322,349.32
	C104.502,298,53.502,246,1.438,193.594"/>
<path opacity="0.5" fill="none" stroke="#020202" stroke-width="0.5" enable-background="new    " d="M166.317,349.316
	C110.502,295,55.502,240,1.278,184.402"/>
<path opacity="0.5" fill="none" stroke="#020202" stroke-width="0.5" enable-background="new    " d="M175.796,349.295
	C117.502,291,59.502,233,1.361,174.859"/>
<path opacity="0.5" fill="none" stroke="#020202" stroke-width="0.5" enable-background="new    " d="M184.886,349.385
	C123.502,288,62.502,227,1.174,165.673"/>
<path opacity="0.5" fill="none" stroke="#020202" stroke-width="0.5" enable-background="new    " d="M194.362,349.359
	C129.502,286,65.502,221,1.284,156.269"/>
<path opacity="0.5" fill="none" stroke="#020202" stroke-width="0.5" enable-background="new    " d="M203.302,349.301
	C135.502,282,67.502,215,1.137,147.096"/>
<path opacity="0.5" fill="none" stroke="#020202" stroke-width="0.5" enable-background="new    " d="M212.995,349.493
	C142.502,279,71.502,208,1.311,137.809"/>
<path opacity="0.5" fill="none" stroke="#020202" stroke-width="0.5" enable-background="new    " d="M221.984,349.482
	C148.502,276,74.502,202,1.144,128.642"/>
<path opacity="0.5" fill="none" stroke="#020202" stroke-width="0.5" enable-background="new    " d="M231.452,349.45
	C154.502,272,77.502,196,1.289,119.232"/>
<path opacity="0.5" fill="none" stroke="#020202" stroke-width="0.5" enable-background="new    " d="M240.468,349.468
	C160.502,270,80.502,190,1.35,110.287"/>
<path opacity="0.5" fill="none" stroke="#020202" stroke-width="0.5" enable-background="new    " d="M249.931,349.43
	C166.502,266,84.502,184,1.364,100.862"/>
<path opacity="0.5" fill="none" stroke="#020202" stroke-width="0.5" enable-background="new    " d="M258.946,349.443
	C172.502,263,87.502,178,1.411,91.909"/>
<path opacity="0.5" fill="none" stroke="#020202" stroke-width="0.5" enable-background="new    " d="M268.403,349.4
	C178.502,261,90.502,172,1.228,82.633"/>
<path opacity="0.5" fill="none" stroke="#020202" stroke-width="0.5" enable-background="new    " d="M277.384,349.384
	C184.502,257,92.502,166,1.116,73.014"/>
<path opacity="0.5" fill="none" stroke="#020202" stroke-width="0.5" enable-background="new    " d="M286.835,349.335
	C191.502,254,96.502,159,1.493,63.991"/>
<path opacity="0.5" fill="none" stroke="#020202" stroke-width="0.5" enable-background="new    " d="M295.944,349.443
	C197.502,251,99.502,153,1.384,54.882"/>
<path opacity="0.5" fill="none" stroke="#020202" stroke-width="0.5" enable-background="new    " d="M305.39,349.389
	C203.502,249,101.502,147,1.092,45.159"/>
<path opacity="0.5" fill="none" stroke="#020202" stroke-width="0.5" enable-background="new    " d="M314.38,349.379
	C209.502,245,105.502,141,1.031,36.155"/>
<path opacity="0.5" fill="none" stroke="#020202" stroke-width="0.5" enable-background="new    " d="M323.818,349.316
	C216.502,242,108.502,134,1.141,26.638"/>
<path opacity="0.5" fill="none" stroke="#020202" stroke-width="0.5" enable-background="new    " d="M332.827,349.327
	C222.502,239,111.502,128,1.033,17.531"/>
<path opacity="0.5" fill="none" stroke="#020202" stroke-width="0.5" enable-background="new    " d="M342.439,349.438
	C227.502,236,115.502,122,1.119,8.217"/>
<path opacity="0.5" fill="none" stroke="#020202" stroke-width="0.5" enable-background="new    " d="M351.392,349.391
	C234.502,234,118.502,117,2.295-0.13"/>
<path opacity="0.5" fill="none" stroke="#020202" stroke-width="0.5" enable-background="new    " d="M360.984,349.482
	C244.502,233,127.502,116,11.003-0.5"/>
<path opacity="0.5" fill="none" stroke="#020202" stroke-width="0.5" enable-background="new    " d="M369.961,349.459
	C253.502,233,136.502,116,20.399-0.103"/>
<path opacity="0.5" fill="none" stroke="#020202" stroke-width="0.5" enable-background="new    " d="M379.371,349.371
	C261.502,234,146.502,116,29.547-0.44"/>
<path opacity="0.5" fill="none" stroke="#020202" stroke-width="0.5" enable-background="new    " d="M388.414,349.414
	C271.502,233,155.502,116,38.12-0.057"/>
<path opacity="0.5" fill="none" stroke="#020202" stroke-width="0.5" enable-background="new    " d="M397.966,349.464
	C281.502,233,164.502,116,48.118-0.384"/>
<path opacity="0.5" fill="none" stroke="#020202" stroke-width="0.5" enable-background="new    " d="M406.893,349.391
	C290.502,233,173.502,116,57.038-0.464"/>
<path opacity="0.5" fill="none" stroke="#020202" stroke-width="0.5" enable-background="new    " d="M416.415,349.416
	C299.502,233,183.502,116,66.786-0.346"/>
<path opacity="0.5" fill="none" stroke="#020202" stroke-width="0.5" enable-background="new    " d="M425.397,349.396
	C307.502,234,193.502,116,75.936-0.44"/>
<path opacity="0.5" fill="none" stroke="#020202" stroke-width="0.5" enable-background="new    " d="M434.893,349.391
	C318.502,233,201.502,116,85.233-0.27"/>
<path opacity="0.5" fill="none" stroke="#020202" stroke-width="0.5" enable-background="new    " d="M443.965,349.463
	C327.502,233,210.502,116,94.145-0.357"/>
<path opacity="0.5" fill="none" stroke="#020202" stroke-width="0.5" enable-background="new    " d="M453.459,349.457
	C336.502,233,220.502,116,103.191-0.487"/>
<path opacity="0.5" fill="none" stroke="#020202" stroke-width="0.5" enable-background="new    " d="M462.326,349.326
	C345.502,233,229.502,116,112.592-0.08"/>
<path opacity="0.5" fill="none" stroke="#020202" stroke-width="0.5" enable-background="new    " d="M471.956,349.456
	C355.502,233,238.502,116,122.4-0.102"/>
<path opacity="0.5" fill="none" stroke="#020202" stroke-width="0.5" enable-background="new    " d="M480.914,349.414
	C364.502,233,247.502,116,131.323-0.179"/>
<path opacity="0.5" fill="none" stroke="#020202" stroke-width="0.5" enable-background="new    " d="M490.349,349.348
	C372.502,234,256.502,117,141.052-0.044"/>
<path opacity="0.5" fill="none" stroke="#020202" stroke-width="0.5" enable-background="new    " d="M499.347,349.346
	C381.502,234,266.502,116,149.781-0.322"/>
<path opacity="0.5" fill="none" stroke="#020202" stroke-width="0.5" enable-background="new    " d="M508.948,349.447
	C392.502,233,275.502,116,159.342-0.16"/>
<path opacity="0.5" fill="none" stroke="#020202" stroke-width="0.5" enable-background="new    " d="M517.921,349.419
	C401.502,233,284.502,116,168.251-0.251"/>
<path opacity="0.5" fill="none" stroke="#020202" stroke-width="0.5" enable-background="new    " d="M527.34,349.338
	C410.502,233,293.502,117,177.336-0.068"/>
<path opacity="0.5" fill="none" stroke="#020202" stroke-width="0.5" enable-background="new    " d="M536.386,349.384
	C420.502,233,303.502,117,187.261-0.092"/>
<path opacity="0.5" fill="none" stroke="#020202" stroke-width="0.5" enable-background="new    " d="M545.955,349.454
	C429.502,233,312.502,116,196.352-0.15"/>
<path opacity="0.5" fill="none" stroke="#020202" stroke-width="0.5" enable-background="new    " d="M554.968,349.467
	C438.502,233,321.502,116,205.27-0.232"/>
<path opacity="0.5" fill="none" stroke="#020202" stroke-width="0.5" enable-background="new    " d="M564.367,349.367
	C447.502,234,331.502,117,215.207-0.043"/>
<path opacity="0.5" fill="none" stroke="#020202" stroke-width="0.5" enable-background="new    " d="M573.383,349.381
	C456.502,233,340.502,116,223.675-0.122"/>
<path opacity="0.5" fill="none" stroke="#020202" stroke-width="0.5" enable-background="new    " d="M582.911,349.411
	C466.502,233,349.502,116,233.133-0.369"/>
<path opacity="0.5" fill="none" stroke="#020202" stroke-width="0.5" enable-background="new    " d="M591.884,349.383
	C475.502,233,358.502,116,242.061-0.441"/>
<path opacity="0.5" fill="none" stroke="#020202" stroke-width="0.5" enable-background="new    " d="M602.326,349.326
	C484.502,234,369.502,116,252.873-0.024"/>
<path opacity="0.5" fill="none" stroke="#020202" stroke-width="0.5" enable-background="new    " d="M611.956,349.456
	C495.502,233,378.502,116,262.4-0.102"/>
<path opacity="0.5" fill="none" stroke="#020202" stroke-width="0.5" enable-background="new    " d="M620.916,349.414
	C504.502,233,387.502,116,271.323-0.179"/>
<path opacity="0.5" fill="none" stroke="#020202" stroke-width="0.5" enable-background="new    " d="M630.349,349.348
	C512.502,234,396.502,117,281.052-0.044"/>
<path opacity="0.5" fill="none" stroke="#020202" stroke-width="0.5" enable-background="new    " d="M639.347,349.346
	C521.502,234,406.502,116,289.781-0.322"/>
<path opacity="0.5" fill="none" stroke="#020202" stroke-width="0.5" enable-background="new    " d="M648.948,349.447
	C532.502,233,415.502,116,299.342-0.16"/>
<path opacity="0.5" fill="none" stroke="#020202" stroke-width="0.5" enable-background="new    " d="M657.921,349.419
	C541.502,233,424.502,116,308.251-0.251"/>
<path opacity="0.5" fill="none" stroke="#020202" stroke-width="0.5" enable-background="new    " d="M667.34,349.338
	C550.502,233,434.502,117,318.226-0.061"/>
<path opacity="0.5" fill="none" stroke="#020202" stroke-width="0.5" enable-background="new    " d="M676.386,349.384
	C559.502,234,444.502,116,327.075-0.454"/>
<path opacity="0.5" fill="none" stroke="#020202" stroke-width="0.5" enable-background="new    " d="M685.954,349.454
	C569.502,233,452.502,116,336.352-0.15"/>
<path opacity="0.5" fill="none" stroke="#020202" stroke-width="0.5" enable-background="new    " d="M694.969,349.467
	C578.502,233,461.502,116,345.27-0.232"/>
<path opacity="0.5" fill="none" stroke="#020202" stroke-width="0.5" enable-background="new    " d="M704.367,349.367
	C587.502,234,471.502,117,355.205-0.043"/>
<path opacity="0.5" fill="none" stroke="#020202" stroke-width="0.5" enable-background="new    " d="M713.383,349.381
	C596.502,233,480.502,116,363.675-0.122"/>
<path opacity="0.5" fill="none" stroke="#020202" stroke-width="0.5" enable-background="new    " d="M722.911,349.411
	C606.502,233,489.502,116,373.133-0.369"/>
<path opacity="0.5" fill="none" stroke="#020202" stroke-width="0.5" enable-background="new    " d="M731.885,349.383
	C615.502,233,498.502,116,382.061-0.441"/>
<path opacity="0.5" fill="none" stroke="#020202" stroke-width="0.5" enable-background="new    " d="M741.956,349.456
	C625.502,233,508.502,116,392.4-0.102"/>
<path opacity="0.5" fill="none" stroke="#020202" stroke-width="0.5" enable-background="new    " d="M750.916,349.414
	C634.502,233,517.502,116,401.323-0.179"/>
<path opacity="0.5" fill="none" stroke="#020202" stroke-width="0.5" enable-background="new    " d="M760.349,349.348
	C642.502,234,526.502,117,411.052-0.044"/>
<path opacity="0.5" fill="none" stroke="#020202" stroke-width="0.5" enable-background="new    " d="M769.347,349.346
	C651.502,234,536.502,116,419.781-0.322"/>
<path opacity="0.5" fill="none" stroke="#020202" stroke-width="0.5" enable-background="new    " d="M778.948,349.447
	C662.502,233,545.502,116,429.342-0.16"/>
<path opacity="0.5" fill="none" stroke="#020202" stroke-width="0.5" enable-background="new    " d="M787.921,349.419
	C671.502,233,554.502,116,438.251-0.251"/>
<path opacity="0.5" fill="none" stroke="#020202" stroke-width="0.5" enable-background="new    " d="M797.34,349.338
	C680.502,233,564.502,117,448.226-0.061"/>
<path opacity="0.5" fill="none" stroke="#020202" stroke-width="0.5" enable-background="new    " d="M806.386,349.384
	C689.502,234,574.502,116,457.075-0.454"/>
<path opacity="0.5" fill="none" stroke="#020202" stroke-width="0.5" enable-background="new    " d="M815.954,349.454
	C699.502,233,582.502,116,466.352-0.15"/>
<path opacity="0.5" fill="none" stroke="#020202" stroke-width="0.5" enable-background="new    " d="M824.969,349.467
	C708.502,233,591.502,116,475.27-0.232"/>
<path opacity="0.5" fill="none" stroke="#020202" stroke-width="0.5" enable-background="new    " d="M834.367,349.367
	C717.502,234,601.502,117,485.205-0.043"/>
<path opacity="0.5" fill="none" stroke="#020202" stroke-width="0.5" enable-background="new    " d="M843.383,349.381
	C726.502,233,610.502,116,493.675-0.122"/>
<path opacity="0.5" fill="none" stroke="#020202" stroke-width="0.5" enable-background="new    " d="M852.911,349.411
	C736.502,233,619.502,116,503.133-0.369"/>
<path opacity="0.5" fill="none" stroke="#020202" stroke-width="0.5" enable-background="new    " d="M861.885,349.383
	C745.502,233,628.502,116,512.062-0.441"/>
<path opacity="0.5" fill="none" stroke="#020202" stroke-width="0.5" enable-background="new    " d="M870.916,349.414
	C754.502,233,637.502,116,521.323-0.179"/>
<path opacity="0.5" fill="none" stroke="#020202" stroke-width="0.5" enable-background="new    " d="M880.349,349.348
	C762.502,234,646.502,117,531.052-0.044"/>
<path opacity="0.5" fill="none" stroke="#020202" stroke-width="0.5" enable-background="new    " d="M889.347,349.346
	C771.502,234,656.502,116,539.781-0.322"/>
<path opacity="0.5" fill="none" stroke="#020202" stroke-width="0.5" enable-background="new    " d="M898.948,349.447
	C782.502,233,665.502,116,549.342-0.16"/>
<path opacity="0.5" fill="none" stroke="#020202" stroke-width="0.5" enable-background="new    " d="M907.921,349.419
	C791.502,233,674.502,116,558.25-0.251"/>
<path opacity="0.5" fill="none" stroke="#020202" stroke-width="0.5" enable-background="new    " d="M917.34,349.338
	C800.502,233,683.502,117,567.336-0.068"/>
<path opacity="0.5" fill="none" stroke="#020202" stroke-width="0.5" enable-background="new    " d="M926.386,349.384
	C810.502,233,693.502,117,577.261-0.092"/>
<path opacity="0.5" fill="none" stroke="#020202" stroke-width="0.5" enable-background="new    " d="M935.954,349.454
	C819.502,233,702.502,116,586.352-0.15"/>
<path opacity="0.5" fill="none" stroke="#020202" stroke-width="0.5" enable-background="new    " d="M944.969,349.467
	C828.502,233,711.502,116,595.27-0.232"/>
<path opacity="0.5" fill="none" stroke="#020202" stroke-width="0.5" enable-background="new    " d="M954.367,349.367
	C837.502,234,721.502,117,605.204-0.043"/>
<path opacity="0.5" fill="none" stroke="#020202" stroke-width="0.5" enable-background="new    " d="M963.383,349.381
	C846.502,233,730.502,116,613.675-0.122"/>
<path opacity="0.5" fill="none" stroke="#020202" stroke-width="0.5" enable-background="new    " d="M972.911,349.411
	C856.502,233,739.502,116,623.133-0.369"/>
<path opacity="0.5" fill="none" stroke="#020202" stroke-width="0.5" enable-background="new    " d="M981.885,349.383
	C865.502,233,748.502,116,632.062-0.441"/>
<path opacity="0.5" fill="none" stroke="#020202" stroke-width="0.5" enable-background="new    " d="M992.349,349.348
	C874.502,234,758.502,117,643.052-0.044"/>
<path opacity="0.5" fill="none" stroke="#020202" stroke-width="0.5" enable-background="new    " d="M1001.347,349.346
	C883.502,234,768.502,116,651.781-0.322"/>
<path opacity="0.5" fill="none" stroke="#020202" stroke-width="0.5" enable-background="new    " d="M1010.948,349.447
	C894.502,233,777.502,116,661.342-0.16"/>
<path opacity="0.5" fill="none" stroke="#020202" stroke-width="0.5" enable-background="new    " d="M1019.921,349.419
	C903.502,233,786.502,116,670.25-0.251"/>
<path opacity="0.5" fill="none" stroke="#020202" stroke-width="0.5" enable-background="new    " d="M1029.34,349.338
	C912.502,233,795.502,117,679.336-0.068"/>
<path opacity="0.5" fill="none" stroke="#020202" stroke-width="0.5" enable-background="new    " d="M1038.387,349.384
	C922.502,233,805.502,117,689.261-0.092"/>
<path opacity="0.5" fill="none" stroke="#020202" stroke-width="0.5" enable-background="new    " d="M1047.954,349.454
	C931.502,233,814.502,116,698.352-0.15"/>
<path opacity="0.5" fill="none" stroke="#020202" stroke-width="0.5" enable-background="new    " d="M1056.969,349.467
	C940.502,233,823.502,116,707.27-0.232"/>
<path opacity="0.5" fill="none" stroke="#020202" stroke-width="0.5" enable-background="new    " d="M1066.367,349.367
	C949.502,234,833.502,117,717.204-0.043"/>
<path opacity="0.5" fill="none" stroke="#020202" stroke-width="0.5" enable-background="new    " d="M1075.383,349.381
	C958.502,233,842.502,116,725.675-0.122"/>
<path opacity="0.5" fill="none" stroke="#020202" stroke-width="0.5" enable-background="new    " d="M1084.911,349.411
	C968.502,233,851.502,116,735.133-0.369"/>
<path opacity="0.5" fill="none" stroke="#020202" stroke-width="0.5" enable-background="new    " d="M1093.885,349.383
	C977.502,233,860.502,116,744.062-0.441"/>
<path opacity="0.5" fill="none" stroke="#020202" stroke-width="0.5" enable-background="new    " d="M1103.483,349.48
	C986.502,234,870.502,116,754.395-0.236"/>
<path opacity="0.5" fill="none" stroke="#020202" stroke-width="0.5" enable-background="new    " d="M1112.975,349.473
	C996.502,233,879.502,116,763.163-0.337"/>
<path opacity="0.5" fill="none" stroke="#020202" stroke-width="0.5" enable-background="new    " d="M1121.99,349.488
	C1005.502,233,888.502,116,772.375-0.127"/>
<path opacity="0.5" fill="none" stroke="#020202" stroke-width="0.5" enable-background="new    " d="M1131.448,349.447
	C1014.502,233,898.502,116,781.611-0.452"/>
<path opacity="0.5" fill="none" stroke="#020202" stroke-width="0.5" enable-background="new    " d="M1140.462,349.46
	C1023.502,233,907.502,116,790.33-0.303"/>
<path opacity="0.5" fill="none" stroke="#020202" stroke-width="0.5" enable-background="new    " d="M1149.969,349.467
	C1033.502,233,916.502,116,800.234-0.268"/>
<path opacity="0.5" fill="none" stroke="#020202" stroke-width="0.5" enable-background="new    " d="M1158.873,349.371
	C1042.502,233,925.502,116,809.146-0.355"/>
<path opacity="0.5" fill="none" stroke="#020202" stroke-width="0.5" enable-background="new    " d="M1168.465,349.463
	C1051.502,233,935.502,116,818.663-0.24"/>
<path opacity="0.5" fill="none" stroke="#020202" stroke-width="0.5" enable-background="new    " d="M1177.465,349.463
	C1060.502,233,945.502,116,828.478-0.314"/>
<path opacity="0.5" fill="none" stroke="#020202" stroke-width="0.5" enable-background="new    " d="M1186.877,349.375
	C1070.502,233,953.502,116,837.486-0.016"/>
<path opacity="0.5" fill="none" stroke="#020202" stroke-width="0.5" enable-background="new    " d="M1195.883,349.381
	C1079.502,233,962.502,116,846.416-0.086"/>
<path opacity="0.5" fill="none" stroke="#020202" stroke-width="0.5" enable-background="new    " d="M1199.993,344.493
	C1084.502,229,970.502,115,855.328-0.172"/>
<path opacity="0.5" fill="none" stroke="#020202" stroke-width="0.5" enable-background="new    " d="M1199.641,334.693
	C1088.502,223,976.502,111,864.855-0.228"/>
<path opacity="0.5" fill="none" stroke="#020202" stroke-width="0.5" enable-background="new    " d="M1199.756,325.836
	C1090.502,217,982.502,108,873.784-0.292"/>
<path opacity="0.5" fill="none" stroke="#020202" stroke-width="0.5" enable-background="new    " d="M1200,316.498
	C1094.502,211,988.502,105,883.275-0.227"/>
<path opacity="0.5" fill="none" stroke="#020202" stroke-width="0.5" enable-background="new    " d="M1199.584,307.083
	C1097.502,205,994.502,102,892.188-0.314"/>
<path opacity="0.5" fill="none" stroke="#020202" stroke-width="0.5" enable-background="new    " d="M1199.698,298.197
	C1100.502,199,1000.502,99,901.146-0.355"/>
<path opacity="0.5" fill="none" stroke="#020202" stroke-width="0.5" enable-background="new    " d="M1199.754,288.895
	C1103.502,192,1007.502,96,910.663-0.24"/>
<path opacity="0.5" fill="none" stroke="#020202" stroke-width="0.5" enable-background="new    " d="M1199.982,280.023
	C1142.502,222,1086.502,166,1028.502,107c-36-37-72-72-108.024-107.314"/>
<path opacity="0.5" fill="none" stroke="#020202" stroke-width="0.5" enable-background="new    " d="M1199.632,270.13
	C1109.502,180,1019.502,90,929.486-0.016"/>
<path opacity="0.5" fill="none" stroke="#020202" stroke-width="0.5" enable-background="new    " d="M1199.766,261.264
	C1112.502,174,1025.502,87,938.416-0.086"/>
<path opacity="0.5" fill="none" stroke="#020202" stroke-width="0.5" enable-background="new    " d="M1199.906,252.406
	C1115.502,168,1031.502,84,947.328-0.172"/>
<path opacity="0.5" fill="none" stroke="#020202" stroke-width="0.5" enable-background="new    " d="M1199.937,243.057
	C1118.502,162,1038.502,80,956.855-0.228"/>
<path opacity="0.5" fill="none" stroke="#020202" stroke-width="0.5" enable-background="new    " d="M1199.579,233.689
	C1121.502,156,1044.502,77,965.784-0.292"/>
<path opacity="0.5" fill="none" stroke="#020202" stroke-width="0.5" enable-background="new    " d="M1199.832,224.331
	C1124.502,149,1050.502,75,975.275-0.227"/>
<path opacity="0.5" fill="none" stroke="#020202" stroke-width="0.5" enable-background="new    " d="M1199.934,215.432
	C1127.502,143,1056.502,72,984.188-0.314"/>
<path opacity="0.5" fill="none" stroke="#020202" stroke-width="0.5" enable-background="new    " d="M1199.72,206.219
	C1130.502,137,1062.502,69,993.147-0.354"/>
<path opacity="0.5" fill="none" stroke="#020202" stroke-width="0.5" enable-background="new    " d="M1199.92,197.281
	C1133.502,132,1068.502,65,1002.645-0.357"/>
<path opacity="0.5" fill="none" stroke="#020202" stroke-width="0.5" enable-background="new    " d="M1199.531,187.055
	C1136.502,125,1074.502,62,1011.535-0.465"/>
<path opacity="0.5" fill="none" stroke="#020202" stroke-width="0.5" enable-background="new    " d="M1199.651,178.148
	C1140.502,119,1080.502,59,1021.032-0.467"/>
<path opacity="0.5" fill="none" stroke="#020202" stroke-width="0.5" enable-background="new    " d="M1199.992,169.492
	C1143.502,113,1086.502,56,1030.186-0.316"/>
<path opacity="0.5" fill="none" stroke="#020202" stroke-width="0.5" enable-background="new    " d="M1199.65,160.149
	C1146.502,107,1092.502,53,1039.14-0.362"/>
<path opacity="0.5" fill="none" stroke="#020202" stroke-width="0.5" enable-background="new    " d="M1199.522,150.146
	C1148.502,101,1100.502,49,1048.637-0.365"/>
<path opacity="0.5" fill="none" stroke="#020202" stroke-width="0.5" enable-background="new    " d="M1199.586,141.21
	C1151.502,95,1105.502,46,1057.545-0.457"/>
<path opacity="0.5" fill="none" stroke="#020202" stroke-width="0.5" enable-background="new    " d="M1199.947,132.446
	C1155.502,88,1111.502,44,1067.041-0.46"/>
<path opacity="0.5" fill="none" stroke="#020202" stroke-width="0.5" enable-background="new    " d="M1199.567,123.065
	C1158.502,82,1117.502,41,1076.191-0.311"/>
<path opacity="0.5" fill="none" stroke="#020202" stroke-width="0.5" enable-background="new    " d="M1199.865,114.366
	C1161.502,76,1123.502,38,1085.148-0.354"/>
<path opacity="0.5" fill="none" stroke="#020202" stroke-width="0.5" enable-background="new    " d="M1199.648,104.969
	C1164.502,70,1130.502,34,1094.645-0.357"/>
<path opacity="0.5" fill="none" stroke="#020202" stroke-width="0.5" enable-background="new    " d="M1199.938,95.881
	c-32.191-32.058-64.351-64.148-96.401-96.346"/>
<path opacity="0.5" fill="none" stroke="#020202" stroke-width="0.5" enable-background="new    " d="M1199.981,86.48
	c-28.982-28.982-57.965-57.965-86.947-86.947"/>
<path opacity="0.5" fill="none" stroke="#020202" stroke-width="0.5" enable-background="new    " d="M1199.763,77.26
	c-25.859-25.859-51.718-51.718-77.577-77.577"/>
<path opacity="0.5" fill="none" stroke="#020202" stroke-width="0.5" enable-background="new    " d="M1199.531,68.031
	c-22.798-22.798-45.595-45.595-68.393-68.393"/>
<path opacity="0.5" fill="none" stroke="#020202" stroke-width="0.5" enable-background="new    " d="M1199.907,58.678
	c-19.748-19.69-39.506-39.371-59.271-59.043"/>
<path opacity="0.5" fill="none" stroke="#020202" stroke-width="0.5" enable-background="new    " d="M1199.954,49.747
	c-16.797-16.742-33.601-33.476-50.409-50.204"/>
<path opacity="0.5" fill="none" stroke="#020202" stroke-width="0.5" enable-background="new    " d="M1199.88,40.378
	c-13.612-13.613-27.228-27.225-40.839-40.838"/>
<path opacity="0.5" fill="none" stroke="#020202" stroke-width="0.5" enable-background="new    " d="M1199.617,31.117
	c-10.476-10.476-20.951-20.952-31.428-31.428"/>
<path opacity="0.5" fill="none" stroke="#020202" stroke-width="0.5" enable-background="new    " d="M1199.849,22.347
	c-7.57-7.571-15.142-15.141-22.711-22.711"/>
<path opacity="0.5" fill="none" stroke="#020202" stroke-width="0.5" enable-background="new    " d="M1199.801,12.298
	c-4.268-4.266-8.532-8.532-12.798-12.797"/>
</svg>
