<?xml version="1.0" encoding="UTF-8" standalone="no"?>
<!-- Generator: Adobe Illustrator 16.0.0, SVG Export Plug-In . SVG Version: 6.00 Build 0)  -->

<svg
   xmlns:dc="http://purl.org/dc/elements/1.1/"
   xmlns:cc="http://creativecommons.org/ns#"
   xmlns:rdf="http://www.w3.org/1999/02/22-rdf-syntax-ns#"
   xmlns:svg="http://www.w3.org/2000/svg"
   xmlns="http://www.w3.org/2000/svg"
   xmlns:sodipodi="http://sodipodi.sourceforge.net/DTD/sodipodi-0.dtd"
   xmlns:inkscape="http://www.inkscape.org/namespaces/inkscape"
   version="1.1"
   id="Layer_1"
   x="0px"
   y="0px"
   width="1200"
   height="500"
   viewBox="0 0 1200 500"
   enable-background="new 0 0 1200 350"
   xml:space="preserve"
   inkscape:version="0.48.5 r10040"
   sodipodi:docname="banner_overlay2.svg"><metadata
     id="metadata3719"><rdf:RDF><cc:Work
         rdf:about=""><dc:format>image/svg+xml</dc:format><dc:type
           rdf:resource="http://purl.org/dc/dcmitype/StillImage" /></cc:Work></rdf:RDF></metadata><defs
     id="defs3717" /><sodipodi:namedview
     pagecolor="#ffffff"
     bordercolor="#666666"
     borderopacity="1"
     objecttolerance="10"
     gridtolerance="10"
     guidetolerance="10"
     inkscape:pageopacity="0"
     inkscape:pageshadow="2"
     inkscape:window-width="1366"
     inkscape:window-height="721"
     id="namedview3715"
     showgrid="false"
     inkscape:zoom="1.0824912"
     inkscape:cx="-213.05601"
     inkscape:cy="170.2222"
     inkscape:window-x="-2"
     inkscape:window-y="-3"
     inkscape:window-maximized="1"
     inkscape:current-layer="Layer_1" /><g
     id="g3759"
     transform="matrix(0.99979171,0,0,1.4241931,0.125,-0.30973849)"><rect
       id="rect3381"
       height="349.45599"
       width="1199.649"
       enable-background="new    "
       y="0.87"
       x="0"
       style="opacity:0.4" /><path
       id="path3383"
       d="M 9.364,349.361 C 6.589,346.599 3.812,343.836 1.04,341.07"
       enable-background="new    "
       inkscape:connector-curvature="0"
       style="opacity:0.5;fill:none;stroke:#020202;stroke-width:0.5" /><path
       id="path3385"
       d="M 18.476,349.475 C 12.713,343.854 6.961,338.223 1.218,332.582"
       enable-background="new    "
       inkscape:connector-curvature="0"
       style="opacity:0.5;fill:none;stroke:#020202;stroke-width:0.5" /><path
       id="path3387"
       d="M 27.971,349.471 C 19.118,340.617 10.265,331.764 1.412,322.911"
       enable-background="new    "
       inkscape:connector-curvature="0"
       style="opacity:0.5;fill:none;stroke:#020202;stroke-width:0.5" /><path
       id="path3389"
       d="M 36.803,349.303 C 25.01,337.508 13.216,325.715 1.422,313.921"
       enable-background="new    "
       inkscape:connector-curvature="0"
       style="opacity:0.5;fill:none;stroke:#020202;stroke-width:0.5" /><path
       id="path3391"
       d="M 46.298,349.296 C 31.245,334.46 16.218,319.6 1.213,304.715"
       enable-background="new    "
       inkscape:connector-curvature="0"
       style="opacity:0.5;fill:none;stroke:#020202;stroke-width:0.5" /><path
       id="path3393"
       d="M 55.331,349.329 C 37.216,331.3 19.107,313.264 1.009,295.219"
       enable-background="new    "
       inkscape:connector-curvature="0"
       style="opacity:0.5;fill:none;stroke:#020202;stroke-width:0.5" /><path
       id="path3395"
       d="M 64.824,349.322 C 43.605,328.105 22.388,306.886 1.173,285.671"
       enable-background="new    "
       inkscape:connector-curvature="0"
       style="opacity:0.5;fill:none;stroke:#020202;stroke-width:0.5" /><path
       id="path3397"
       d="M 73.802,349.3 C 49.625,325.122 25.447,300.946 1.27,276.768"
       enable-background="new    "
       inkscape:connector-curvature="0"
       style="opacity:0.5;fill:none;stroke:#020202;stroke-width:0.5" /><path
       id="path3399"
       d="M 83.293,349.292 C 55.889,322.014 28.529,294.688 1.196,267.337"
       enable-background="new    "
       inkscape:connector-curvature="0"
       style="opacity:0.5;fill:none;stroke:#020202;stroke-width:0.5" /><path
       id="path3401"
       d="M 92.445,349.443 C 62.151,319.013 31.764,288.673 1.346,258.369"
       enable-background="new    "
       inkscape:connector-curvature="0"
       style="opacity:0.5;fill:none;stroke:#020202;stroke-width:0.5" /><path
       id="path3403"
       d="M 101.935,349.434 C 68.502,316 34.502,282 1.355,248.854"
       enable-background="new    "
       inkscape:connector-curvature="0"
       style="opacity:0.5;fill:none;stroke:#020202;stroke-width:0.5" /><path
       id="path3405"
       d="M 110.77,349.268 C 74.502,313 37.502,276 1.247,239.745"
       enable-background="new    "
       inkscape:connector-curvature="0"
       style="opacity:0.5;fill:none;stroke:#020202;stroke-width:0.5" /><path
       id="path3407"
       d="M 120.495,349.493 C 80.502,310 40.502,270 1.058,229.717"
       enable-background="new    "
       inkscape:connector-curvature="0"
       style="opacity:0.5;fill:none;stroke:#020202;stroke-width:0.5" /><path
       id="path3409"
       d="M 129.476,349.475 C 85.502,308 44.502,264 1.334,221.62"
       enable-background="new    "
       inkscape:connector-curvature="0"
       style="opacity:0.5;fill:none;stroke:#020202;stroke-width:0.5" /><path
       id="path3411"
       d="M 138.961,349.459 C 92.502,303 47.502,258 1.064,211.563"
       enable-background="new    "
       inkscape:connector-curvature="0"
       style="opacity:0.5;fill:none;stroke:#020202;stroke-width:0.5" /><path
       id="path3413"
       d="M 147.84,349.338 C 98.502,300 50.502,252 1.108,202.605"
       enable-background="new    "
       inkscape:connector-curvature="0"
       style="opacity:0.5;fill:none;stroke:#020202;stroke-width:0.5" /><path
       id="path3415"
       d="M 157.322,349.32 C 104.502,298 53.502,246 1.438,193.594"
       enable-background="new    "
       inkscape:connector-curvature="0"
       style="opacity:0.5;fill:none;stroke:#020202;stroke-width:0.5" /><path
       id="path3417"
       d="M 166.317,349.316 C 110.502,295 55.502,240 1.278,184.402"
       enable-background="new    "
       inkscape:connector-curvature="0"
       style="opacity:0.5;fill:none;stroke:#020202;stroke-width:0.5" /><path
       id="path3419"
       d="M 175.796,349.295 C 117.502,291 59.502,233 1.361,174.859"
       enable-background="new    "
       inkscape:connector-curvature="0"
       style="opacity:0.5;fill:none;stroke:#020202;stroke-width:0.5" /><path
       id="path3421"
       d="M 184.886,349.385 C 123.502,288 62.502,227 1.174,165.673"
       enable-background="new    "
       inkscape:connector-curvature="0"
       style="opacity:0.5;fill:none;stroke:#020202;stroke-width:0.5" /><path
       id="path3423"
       d="M 194.362,349.359 C 129.502,286 65.502,221 1.284,156.269"
       enable-background="new    "
       inkscape:connector-curvature="0"
       style="opacity:0.5;fill:none;stroke:#020202;stroke-width:0.5" /><path
       id="path3425"
       d="M 203.302,349.301 C 135.502,282 67.502,215 1.137,147.096"
       enable-background="new    "
       inkscape:connector-curvature="0"
       style="opacity:0.5;fill:none;stroke:#020202;stroke-width:0.5" /><path
       id="path3427"
       d="M 212.995,349.493 C 142.502,279 71.502,208 1.311,137.809"
       enable-background="new    "
       inkscape:connector-curvature="0"
       style="opacity:0.5;fill:none;stroke:#020202;stroke-width:0.5" /><path
       id="path3429"
       d="M 221.984,349.482 C 148.502,276 74.502,202 1.144,128.642"
       enable-background="new    "
       inkscape:connector-curvature="0"
       style="opacity:0.5;fill:none;stroke:#020202;stroke-width:0.5" /><path
       id="path3431"
       d="M 231.452,349.45 C 154.502,272 77.502,196 1.289,119.232"
       enable-background="new    "
       inkscape:connector-curvature="0"
       style="opacity:0.5;fill:none;stroke:#020202;stroke-width:0.5" /><path
       id="path3433"
       d="M 240.468,349.468 C 160.502,270 80.502,190 1.35,110.287"
       enable-background="new    "
       inkscape:connector-curvature="0"
       style="opacity:0.5;fill:none;stroke:#020202;stroke-width:0.5" /><path
       id="path3435"
       d="M 249.931,349.43 C 166.502,266 84.502,184 1.364,100.862"
       enable-background="new    "
       inkscape:connector-curvature="0"
       style="opacity:0.5;fill:none;stroke:#020202;stroke-width:0.5" /><path
       id="path3437"
       d="M 258.946,349.443 C 172.502,263 87.502,178 1.411,91.909"
       enable-background="new    "
       inkscape:connector-curvature="0"
       style="opacity:0.5;fill:none;stroke:#020202;stroke-width:0.5" /><path
       id="path3439"
       d="M 268.403,349.4 C 178.502,261 90.502,172 1.228,82.633"
       enable-background="new    "
       inkscape:connector-curvature="0"
       style="opacity:0.5;fill:none;stroke:#020202;stroke-width:0.5" /><path
       id="path3441"
       d="M 277.384,349.384 C 184.502,257 92.502,166 1.116,73.014"
       enable-background="new    "
       inkscape:connector-curvature="0"
       style="opacity:0.5;fill:none;stroke:#020202;stroke-width:0.5" /><path
       id="path3443"
       d="M 286.835,349.335 C 191.502,254 96.502,159 1.493,63.991"
       enable-background="new    "
       inkscape:connector-curvature="0"
       style="opacity:0.5;fill:none;stroke:#020202;stroke-width:0.5" /><path
       id="path3445"
       d="M 295.944,349.443 C 197.502,251 99.502,153 1.384,54.882"
       enable-background="new    "
       inkscape:connector-curvature="0"
       style="opacity:0.5;fill:none;stroke:#020202;stroke-width:0.5" /><path
       id="path3447"
       d="M 305.39,349.389 C 203.502,249 101.502,147 1.092,45.159"
       enable-background="new    "
       inkscape:connector-curvature="0"
       style="opacity:0.5;fill:none;stroke:#020202;stroke-width:0.5" /><path
       id="path3449"
       d="M 314.38,349.379 C 209.502,245 105.502,141 1.031,36.155"
       enable-background="new    "
       inkscape:connector-curvature="0"
       style="opacity:0.5;fill:none;stroke:#020202;stroke-width:0.5" /><path
       id="path3451"
       d="M 323.818,349.316 C 216.502,242 108.502,134 1.141,26.638"
       enable-background="new    "
       inkscape:connector-curvature="0"
       style="opacity:0.5;fill:none;stroke:#020202;stroke-width:0.5" /><path
       id="path3453"
       d="M 332.827,349.327 C 222.502,239 111.502,128 1.033,17.531"
       enable-background="new    "
       inkscape:connector-curvature="0"
       style="opacity:0.5;fill:none;stroke:#020202;stroke-width:0.5" /><path
       id="path3455"
       d="M 342.439,349.438 C 227.502,236 115.502,122 1.119,8.217"
       enable-background="new    "
       inkscape:connector-curvature="0"
       style="opacity:0.5;fill:none;stroke:#020202;stroke-width:0.5" /><path
       id="path3457"
       d="M 351.392,349.391 C 234.502,234 118.502,117 2.295,-0.13"
       enable-background="new    "
       inkscape:connector-curvature="0"
       style="opacity:0.5;fill:none;stroke:#020202;stroke-width:0.5" /><path
       id="path3459"
       d="M 360.984,349.482 C 244.502,233 127.502,116 11.003,-0.5"
       enable-background="new    "
       inkscape:connector-curvature="0"
       style="opacity:0.5;fill:none;stroke:#020202;stroke-width:0.5" /><path
       id="path3461"
       d="M 369.961,349.459 C 253.502,233 136.502,116 20.399,-0.103"
       enable-background="new    "
       inkscape:connector-curvature="0"
       style="opacity:0.5;fill:none;stroke:#020202;stroke-width:0.5" /><path
       id="path3463"
       d="M 379.371,349.371 C 261.502,234 146.502,116 29.547,-0.44"
       enable-background="new    "
       inkscape:connector-curvature="0"
       style="opacity:0.5;fill:none;stroke:#020202;stroke-width:0.5" /><path
       id="path3465"
       d="M 388.414,349.414 C 271.502,233 155.502,116 38.12,-0.057"
       enable-background="new    "
       inkscape:connector-curvature="0"
       style="opacity:0.5;fill:none;stroke:#020202;stroke-width:0.5" /><path
       id="path3467"
       d="M 397.966,349.464 C 281.502,233 164.502,116 48.118,-0.384"
       enable-background="new    "
       inkscape:connector-curvature="0"
       style="opacity:0.5;fill:none;stroke:#020202;stroke-width:0.5" /><path
       id="path3469"
       d="M 406.893,349.391 C 290.502,233 173.502,116 57.038,-0.464"
       enable-background="new    "
       inkscape:connector-curvature="0"
       style="opacity:0.5;fill:none;stroke:#020202;stroke-width:0.5" /><path
       id="path3471"
       d="M 416.415,349.416 C 299.502,233 183.502,116 66.786,-0.346"
       enable-background="new    "
       inkscape:connector-curvature="0"
       style="opacity:0.5;fill:none;stroke:#020202;stroke-width:0.5" /><path
       id="path3473"
       d="M 425.397,349.396 C 307.502,234 193.502,116 75.936,-0.44"
       enable-background="new    "
       inkscape:connector-curvature="0"
       style="opacity:0.5;fill:none;stroke:#020202;stroke-width:0.5" /><path
       id="path3475"
       d="M 434.893,349.391 C 318.502,233 201.502,116 85.233,-0.27"
       enable-background="new    "
       inkscape:connector-curvature="0"
       style="opacity:0.5;fill:none;stroke:#020202;stroke-width:0.5" /><path
       id="path3477"
       d="M 443.965,349.463 C 327.502,233 210.502,116 94.145,-0.357"
       enable-background="new    "
       inkscape:connector-curvature="0"
       style="opacity:0.5;fill:none;stroke:#020202;stroke-width:0.5" /><path
       id="path3479"
       d="M 453.459,349.457 C 336.502,233 220.502,116 103.191,-0.487"
       enable-background="new    "
       inkscape:connector-curvature="0"
       style="opacity:0.5;fill:none;stroke:#020202;stroke-width:0.5" /><path
       id="path3481"
       d="M 462.326,349.326 C 345.502,233 229.502,116 112.592,-0.08"
       enable-background="new    "
       inkscape:connector-curvature="0"
       style="opacity:0.5;fill:none;stroke:#020202;stroke-width:0.5" /><path
       id="path3483"
       d="M 471.956,349.456 C 355.502,233 238.502,116 122.4,-0.102"
       enable-background="new    "
       inkscape:connector-curvature="0"
       style="opacity:0.5;fill:none;stroke:#020202;stroke-width:0.5" /><path
       id="path3485"
       d="M 480.914,349.414 C 364.502,233 247.502,116 131.323,-0.179"
       enable-background="new    "
       inkscape:connector-curvature="0"
       style="opacity:0.5;fill:none;stroke:#020202;stroke-width:0.5" /><path
       id="path3487"
       d="M 490.349,349.348 C 372.502,234 256.502,117 141.052,-0.044"
       enable-background="new    "
       inkscape:connector-curvature="0"
       style="opacity:0.5;fill:none;stroke:#020202;stroke-width:0.5" /><path
       id="path3489"
       d="M 499.347,349.346 C 381.502,234 266.502,116 149.781,-0.322"
       enable-background="new    "
       inkscape:connector-curvature="0"
       style="opacity:0.5;fill:none;stroke:#020202;stroke-width:0.5" /><path
       id="path3491"
       d="M 508.948,349.447 C 392.502,233 275.502,116 159.342,-0.16"
       enable-background="new    "
       inkscape:connector-curvature="0"
       style="opacity:0.5;fill:none;stroke:#020202;stroke-width:0.5" /><path
       id="path3493"
       d="M 517.921,349.419 C 401.502,233 284.502,116 168.251,-0.251"
       enable-background="new    "
       inkscape:connector-curvature="0"
       style="opacity:0.5;fill:none;stroke:#020202;stroke-width:0.5" /><path
       id="path3495"
       d="M 527.34,349.338 C 410.502,233 293.502,117 177.336,-0.068"
       enable-background="new    "
       inkscape:connector-curvature="0"
       style="opacity:0.5;fill:none;stroke:#020202;stroke-width:0.5" /><path
       id="path3497"
       d="M 536.386,349.384 C 420.502,233 303.502,117 187.261,-0.092"
       enable-background="new    "
       inkscape:connector-curvature="0"
       style="opacity:0.5;fill:none;stroke:#020202;stroke-width:0.5" /><path
       id="path3499"
       d="M 545.955,349.454 C 429.502,233 312.502,116 196.352,-0.15"
       enable-background="new    "
       inkscape:connector-curvature="0"
       style="opacity:0.5;fill:none;stroke:#020202;stroke-width:0.5" /><path
       id="path3501"
       d="M 554.968,349.467 C 438.502,233 321.502,116 205.27,-0.232"
       enable-background="new    "
       inkscape:connector-curvature="0"
       style="opacity:0.5;fill:none;stroke:#020202;stroke-width:0.5" /><path
       id="path3503"
       d="M 564.367,349.367 C 447.502,234 331.502,117 215.207,-0.043"
       enable-background="new    "
       inkscape:connector-curvature="0"
       style="opacity:0.5;fill:none;stroke:#020202;stroke-width:0.5" /><path
       id="path3505"
       d="M 573.383,349.381 C 456.502,233 340.502,116 223.675,-0.122"
       enable-background="new    "
       inkscape:connector-curvature="0"
       style="opacity:0.5;fill:none;stroke:#020202;stroke-width:0.5" /><path
       id="path3507"
       d="M 582.911,349.411 C 466.502,233 349.502,116 233.133,-0.369"
       enable-background="new    "
       inkscape:connector-curvature="0"
       style="opacity:0.5;fill:none;stroke:#020202;stroke-width:0.5" /><path
       id="path3509"
       d="M 591.884,349.383 C 475.502,233 358.502,116 242.061,-0.441"
       enable-background="new    "
       inkscape:connector-curvature="0"
       style="opacity:0.5;fill:none;stroke:#020202;stroke-width:0.5" /><path
       id="path3511"
       d="M 602.326,349.326 C 484.502,234 369.502,116 252.873,-0.024"
       enable-background="new    "
       inkscape:connector-curvature="0"
       style="opacity:0.5;fill:none;stroke:#020202;stroke-width:0.5" /><path
       id="path3513"
       d="M 611.956,349.456 C 495.502,233 378.502,116 262.4,-0.102"
       enable-background="new    "
       inkscape:connector-curvature="0"
       style="opacity:0.5;fill:none;stroke:#020202;stroke-width:0.5" /><path
       id="path3515"
       d="M 620.916,349.414 C 504.502,233 387.502,116 271.323,-0.179"
       enable-background="new    "
       inkscape:connector-curvature="0"
       style="opacity:0.5;fill:none;stroke:#020202;stroke-width:0.5" /><path
       id="path3517"
       d="M 630.349,349.348 C 512.502,234 396.502,117 281.052,-0.044"
       enable-background="new    "
       inkscape:connector-curvature="0"
       style="opacity:0.5;fill:none;stroke:#020202;stroke-width:0.5" /><path
       id="path3519"
       d="M 639.347,349.346 C 521.502,234 406.502,116 289.781,-0.322"
       enable-background="new    "
       inkscape:connector-curvature="0"
       style="opacity:0.5;fill:none;stroke:#020202;stroke-width:0.5" /><path
       id="path3521"
       d="M 648.948,349.447 C 532.502,233 415.502,116 299.342,-0.16"
       enable-background="new    "
       inkscape:connector-curvature="0"
       style="opacity:0.5;fill:none;stroke:#020202;stroke-width:0.5" /><path
       id="path3523"
       d="M 657.921,349.419 C 541.502,233 424.502,116 308.251,-0.251"
       enable-background="new    "
       inkscape:connector-curvature="0"
       style="opacity:0.5;fill:none;stroke:#020202;stroke-width:0.5" /><path
       id="path3525"
       d="M 667.34,349.338 C 550.502,233 434.502,117 318.226,-0.061"
       enable-background="new    "
       inkscape:connector-curvature="0"
       style="opacity:0.5;fill:none;stroke:#020202;stroke-width:0.5" /><path
       id="path3527"
       d="M 676.386,349.384 C 559.502,234 444.502,116 327.075,-0.454"
       enable-background="new    "
       inkscape:connector-curvature="0"
       style="opacity:0.5;fill:none;stroke:#020202;stroke-width:0.5" /><path
       id="path3529"
       d="M 685.954,349.454 C 569.502,233 452.502,116 336.352,-0.15"
       enable-background="new    "
       inkscape:connector-curvature="0"
       style="opacity:0.5;fill:none;stroke:#020202;stroke-width:0.5" /><path
       id="path3531"
       d="M 694.969,349.467 C 578.502,233 461.502,116 345.27,-0.232"
       enable-background="new    "
       inkscape:connector-curvature="0"
       style="opacity:0.5;fill:none;stroke:#020202;stroke-width:0.5" /><path
       id="path3533"
       d="M 704.367,349.367 C 587.502,234 471.502,117 355.205,-0.043"
       enable-background="new    "
       inkscape:connector-curvature="0"
       style="opacity:0.5;fill:none;stroke:#020202;stroke-width:0.5" /><path
       id="path3535"
       d="M 713.383,349.381 C 596.502,233 480.502,116 363.675,-0.122"
       enable-background="new    "
       inkscape:connector-curvature="0"
       style="opacity:0.5;fill:none;stroke:#020202;stroke-width:0.5" /><path
       id="path3537"
       d="M 722.911,349.411 C 606.502,233 489.502,116 373.133,-0.369"
       enable-background="new    "
       inkscape:connector-curvature="0"
       style="opacity:0.5;fill:none;stroke:#020202;stroke-width:0.5" /><path
       id="path3539"
       d="M 731.885,349.383 C 615.502,233 498.502,116 382.061,-0.441"
       enable-background="new    "
       inkscape:connector-curvature="0"
       style="opacity:0.5;fill:none;stroke:#020202;stroke-width:0.5" /><path
       id="path3541"
       d="M 741.956,349.456 C 625.502,233 508.502,116 392.4,-0.102"
       enable-background="new    "
       inkscape:connector-curvature="0"
       style="opacity:0.5;fill:none;stroke:#020202;stroke-width:0.5" /><path
       id="path3543"
       d="M 750.916,349.414 C 634.502,233 517.502,116 401.323,-0.179"
       enable-background="new    "
       inkscape:connector-curvature="0"
       style="opacity:0.5;fill:none;stroke:#020202;stroke-width:0.5" /><path
       id="path3545"
       d="M 760.349,349.348 C 642.502,234 526.502,117 411.052,-0.044"
       enable-background="new    "
       inkscape:connector-curvature="0"
       style="opacity:0.5;fill:none;stroke:#020202;stroke-width:0.5" /><path
       id="path3547"
       d="M 769.347,349.346 C 651.502,234 536.502,116 419.781,-0.322"
       enable-background="new    "
       inkscape:connector-curvature="0"
       style="opacity:0.5;fill:none;stroke:#020202;stroke-width:0.5" /><path
       id="path3549"
       d="M 778.948,349.447 C 662.502,233 545.502,116 429.342,-0.16"
       enable-background="new    "
       inkscape:connector-curvature="0"
       style="opacity:0.5;fill:none;stroke:#020202;stroke-width:0.5" /><path
       id="path3551"
       d="M 787.921,349.419 C 671.502,233 554.502,116 438.251,-0.251"
       enable-background="new    "
       inkscape:connector-curvature="0"
       style="opacity:0.5;fill:none;stroke:#020202;stroke-width:0.5" /><path
       id="path3553"
       d="M 797.34,349.338 C 680.502,233 564.502,117 448.226,-0.061"
       enable-background="new    "
       inkscape:connector-curvature="0"
       style="opacity:0.5;fill:none;stroke:#020202;stroke-width:0.5" /><path
       id="path3555"
       d="M 806.386,349.384 C 689.502,234 574.502,116 457.075,-0.454"
       enable-background="new    "
       inkscape:connector-curvature="0"
       style="opacity:0.5;fill:none;stroke:#020202;stroke-width:0.5" /><path
       id="path3557"
       d="M 815.954,349.454 C 699.502,233 582.502,116 466.352,-0.15"
       enable-background="new    "
       inkscape:connector-curvature="0"
       style="opacity:0.5;fill:none;stroke:#020202;stroke-width:0.5" /><path
       id="path3559"
       d="M 824.969,349.467 C 708.502,233 591.502,116 475.27,-0.232"
       enable-background="new    "
       inkscape:connector-curvature="0"
       style="opacity:0.5;fill:none;stroke:#020202;stroke-width:0.5" /><path
       id="path3561"
       d="M 834.367,349.367 C 717.502,234 601.502,117 485.205,-0.043"
       enable-background="new    "
       inkscape:connector-curvature="0"
       style="opacity:0.5;fill:none;stroke:#020202;stroke-width:0.5" /><path
       id="path3563"
       d="M 843.383,349.381 C 726.502,233 610.502,116 493.675,-0.122"
       enable-background="new    "
       inkscape:connector-curvature="0"
       style="opacity:0.5;fill:none;stroke:#020202;stroke-width:0.5" /><path
       id="path3565"
       d="M 852.911,349.411 C 736.502,233 619.502,116 503.133,-0.369"
       enable-background="new    "
       inkscape:connector-curvature="0"
       style="opacity:0.5;fill:none;stroke:#020202;stroke-width:0.5" /><path
       id="path3567"
       d="M 861.885,349.383 C 745.502,233 628.502,116 512.062,-0.441"
       enable-background="new    "
       inkscape:connector-curvature="0"
       style="opacity:0.5;fill:none;stroke:#020202;stroke-width:0.5" /><path
       id="path3569"
       d="M 870.916,349.414 C 754.502,233 637.502,116 521.323,-0.179"
       enable-background="new    "
       inkscape:connector-curvature="0"
       style="opacity:0.5;fill:none;stroke:#020202;stroke-width:0.5" /><path
       id="path3571"
       d="M 880.349,349.348 C 762.502,234 646.502,117 531.052,-0.044"
       enable-background="new    "
       inkscape:connector-curvature="0"
       style="opacity:0.5;fill:none;stroke:#020202;stroke-width:0.5" /><path
       id="path3573"
       d="M 889.347,349.346 C 771.502,234 656.502,116 539.781,-0.322"
       enable-background="new    "
       inkscape:connector-curvature="0"
       style="opacity:0.5;fill:none;stroke:#020202;stroke-width:0.5" /><path
       id="path3575"
       d="M 898.948,349.447 C 782.502,233 665.502,116 549.342,-0.16"
       enable-background="new    "
       inkscape:connector-curvature="0"
       style="opacity:0.5;fill:none;stroke:#020202;stroke-width:0.5" /><path
       id="path3577"
       d="M 907.921,349.419 C 791.502,233 674.502,116 558.25,-0.251"
       enable-background="new    "
       inkscape:connector-curvature="0"
       style="opacity:0.5;fill:none;stroke:#020202;stroke-width:0.5" /><path
       id="path3579"
       d="M 917.34,349.338 C 800.502,233 683.502,117 567.336,-0.068"
       enable-background="new    "
       inkscape:connector-curvature="0"
       style="opacity:0.5;fill:none;stroke:#020202;stroke-width:0.5" /><path
       id="path3581"
       d="M 926.386,349.384 C 810.502,233 693.502,117 577.261,-0.092"
       enable-background="new    "
       inkscape:connector-curvature="0"
       style="opacity:0.5;fill:none;stroke:#020202;stroke-width:0.5" /><path
       id="path3583"
       d="M 935.954,349.454 C 819.502,233 702.502,116 586.352,-0.15"
       enable-background="new    "
       inkscape:connector-curvature="0"
       style="opacity:0.5;fill:none;stroke:#020202;stroke-width:0.5" /><path
       id="path3585"
       d="M 944.969,349.467 C 828.502,233 711.502,116 595.27,-0.232"
       enable-background="new    "
       inkscape:connector-curvature="0"
       style="opacity:0.5;fill:none;stroke:#020202;stroke-width:0.5" /><path
       id="path3587"
       d="M 954.367,349.367 C 837.502,234 721.502,117 605.204,-0.043"
       enable-background="new    "
       inkscape:connector-curvature="0"
       style="opacity:0.5;fill:none;stroke:#020202;stroke-width:0.5" /><path
       id="path3589"
       d="M 963.383,349.381 C 846.502,233 730.502,116 613.675,-0.122"
       enable-background="new    "
       inkscape:connector-curvature="0"
       style="opacity:0.5;fill:none;stroke:#020202;stroke-width:0.5" /><path
       id="path3591"
       d="M 972.911,349.411 C 856.502,233 739.502,116 623.133,-0.369"
       enable-background="new    "
       inkscape:connector-curvature="0"
       style="opacity:0.5;fill:none;stroke:#020202;stroke-width:0.5" /><path
       id="path3593"
       d="M 981.885,349.383 C 865.502,233 748.502,116 632.062,-0.441"
       enable-background="new    "
       inkscape:connector-curvature="0"
       style="opacity:0.5;fill:none;stroke:#020202;stroke-width:0.5" /><path
       id="path3595"
       d="M 992.349,349.348 C 874.502,234 758.502,117 643.052,-0.044"
       enable-background="new    "
       inkscape:connector-curvature="0"
       style="opacity:0.5;fill:none;stroke:#020202;stroke-width:0.5" /><path
       id="path3597"
       d="M 1001.347,349.346 C 883.502,234 768.502,116 651.781,-0.322"
       enable-background="new    "
       inkscape:connector-curvature="0"
       style="opacity:0.5;fill:none;stroke:#020202;stroke-width:0.5" /><path
       id="path3599"
       d="M 1010.948,349.447 C 894.502,233 777.502,116 661.342,-0.16"
       enable-background="new    "
       inkscape:connector-curvature="0"
       style="opacity:0.5;fill:none;stroke:#020202;stroke-width:0.5" /><path
       id="path3601"
       d="M 1019.921,349.419 C 903.502,233 786.502,116 670.25,-0.251"
       enable-background="new    "
       inkscape:connector-curvature="0"
       style="opacity:0.5;fill:none;stroke:#020202;stroke-width:0.5" /><path
       id="path3603"
       d="M 1029.34,349.338 C 912.502,233 795.502,117 679.336,-0.068"
       enable-background="new    "
       inkscape:connector-curvature="0"
       style="opacity:0.5;fill:none;stroke:#020202;stroke-width:0.5" /><path
       id="path3605"
       d="M 1038.387,349.384 C 922.502,233 805.502,117 689.261,-0.092"
       enable-background="new    "
       inkscape:connector-curvature="0"
       style="opacity:0.5;fill:none;stroke:#020202;stroke-width:0.5" /><path
       id="path3607"
       d="M 1047.954,349.454 C 931.502,233 814.502,116 698.352,-0.15"
       enable-background="new    "
       inkscape:connector-curvature="0"
       style="opacity:0.5;fill:none;stroke:#020202;stroke-width:0.5" /><path
       id="path3609"
       d="M 1056.969,349.467 C 940.502,233 823.502,116 707.27,-0.232"
       enable-background="new    "
       inkscape:connector-curvature="0"
       style="opacity:0.5;fill:none;stroke:#020202;stroke-width:0.5" /><path
       id="path3611"
       d="M 1066.367,349.367 C 949.502,234 833.502,117 717.204,-0.043"
       enable-background="new    "
       inkscape:connector-curvature="0"
       style="opacity:0.5;fill:none;stroke:#020202;stroke-width:0.5" /><path
       id="path3613"
       d="M 1075.383,349.381 C 958.502,233 842.502,116 725.675,-0.122"
       enable-background="new    "
       inkscape:connector-curvature="0"
       style="opacity:0.5;fill:none;stroke:#020202;stroke-width:0.5" /><path
       id="path3615"
       d="M 1084.911,349.411 C 968.502,233 851.502,116 735.133,-0.369"
       enable-background="new    "
       inkscape:connector-curvature="0"
       style="opacity:0.5;fill:none;stroke:#020202;stroke-width:0.5" /><path
       id="path3617"
       d="M 1093.885,349.383 C 977.502,233 860.502,116 744.062,-0.441"
       enable-background="new    "
       inkscape:connector-curvature="0"
       style="opacity:0.5;fill:none;stroke:#020202;stroke-width:0.5" /><path
       id="path3619"
       d="M 1103.483,349.48 C 986.502,234 870.502,116 754.395,-0.236"
       enable-background="new    "
       inkscape:connector-curvature="0"
       style="opacity:0.5;fill:none;stroke:#020202;stroke-width:0.5" /><path
       id="path3621"
       d="M 1112.975,349.473 C 996.502,233 879.502,116 763.163,-0.337"
       enable-background="new    "
       inkscape:connector-curvature="0"
       style="opacity:0.5;fill:none;stroke:#020202;stroke-width:0.5" /><path
       id="path3623"
       d="M 1121.99,349.488 C 1005.502,233 888.502,116 772.375,-0.127"
       enable-background="new    "
       inkscape:connector-curvature="0"
       style="opacity:0.5;fill:none;stroke:#020202;stroke-width:0.5" /><path
       id="path3625"
       d="M 1131.448,349.447 C 1014.502,233 898.502,116 781.611,-0.452"
       enable-background="new    "
       inkscape:connector-curvature="0"
       style="opacity:0.5;fill:none;stroke:#020202;stroke-width:0.5" /><path
       id="path3627"
       d="M 1140.462,349.46 C 1023.502,233 907.502,116 790.33,-0.303"
       enable-background="new    "
       inkscape:connector-curvature="0"
       style="opacity:0.5;fill:none;stroke:#020202;stroke-width:0.5" /><path
       id="path3629"
       d="M 1149.969,349.467 C 1033.502,233 916.502,116 800.234,-0.268"
       enable-background="new    "
       inkscape:connector-curvature="0"
       style="opacity:0.5;fill:none;stroke:#020202;stroke-width:0.5" /><path
       id="path3631"
       d="M 1158.873,349.371 C 1042.502,233 925.502,116 809.146,-0.355"
       enable-background="new    "
       inkscape:connector-curvature="0"
       style="opacity:0.5;fill:none;stroke:#020202;stroke-width:0.5" /><path
       id="path3633"
       d="M 1168.465,349.463 C 1051.502,233 935.502,116 818.663,-0.24"
       enable-background="new    "
       inkscape:connector-curvature="0"
       style="opacity:0.5;fill:none;stroke:#020202;stroke-width:0.5" /><path
       id="path3635"
       d="M 1177.465,349.463 C 1060.502,233 945.502,116 828.478,-0.314"
       enable-background="new    "
       inkscape:connector-curvature="0"
       style="opacity:0.5;fill:none;stroke:#020202;stroke-width:0.5" /><path
       id="path3637"
       d="M 1186.877,349.375 C 1070.502,233 953.502,116 837.486,-0.016"
       enable-background="new    "
       inkscape:connector-curvature="0"
       style="opacity:0.5;fill:none;stroke:#020202;stroke-width:0.5" /><path
       id="path3639"
       d="M 1195.883,349.381 C 1079.502,233 962.502,116 846.416,-0.086"
       enable-background="new    "
       inkscape:connector-curvature="0"
       style="opacity:0.5;fill:none;stroke:#020202;stroke-width:0.5" /><path
       id="path3641"
       d="M 1199.993,344.493 C 1084.502,229 970.502,115 855.328,-0.172"
       enable-background="new    "
       inkscape:connector-curvature="0"
       style="opacity:0.5;fill:none;stroke:#020202;stroke-width:0.5" /><path
       id="path3643"
       d="M 1199.641,334.693 C 1088.502,223 976.502,111 864.855,-0.228"
       enable-background="new    "
       inkscape:connector-curvature="0"
       style="opacity:0.5;fill:none;stroke:#020202;stroke-width:0.5" /><path
       id="path3645"
       d="M 1199.756,325.836 C 1090.502,217 982.502,108 873.784,-0.292"
       enable-background="new    "
       inkscape:connector-curvature="0"
       style="opacity:0.5;fill:none;stroke:#020202;stroke-width:0.5" /><path
       id="path3647"
       d="M 1200,316.498 C 1094.502,211 988.502,105 883.275,-0.227"
       enable-background="new    "
       inkscape:connector-curvature="0"
       style="opacity:0.5;fill:none;stroke:#020202;stroke-width:0.5" /><path
       id="path3649"
       d="M 1199.584,307.083 C 1097.502,205 994.502,102 892.188,-0.314"
       enable-background="new    "
       inkscape:connector-curvature="0"
       style="opacity:0.5;fill:none;stroke:#020202;stroke-width:0.5" /><path
       id="path3651"
       d="M 1199.698,298.197 C 1100.502,199 1000.502,99 901.146,-0.355"
       enable-background="new    "
       inkscape:connector-curvature="0"
       style="opacity:0.5;fill:none;stroke:#020202;stroke-width:0.5" /><path
       id="path3653"
       d="M 1199.754,288.895 C 1103.502,192 1007.502,96 910.663,-0.24"
       enable-background="new    "
       inkscape:connector-curvature="0"
       style="opacity:0.5;fill:none;stroke:#020202;stroke-width:0.5" /><path
       id="path3655"
       d="M 1199.982,280.023 C 1142.502,222 1086.502,166 1028.502,107 c -36,-37 -72,-72 -108.024,-107.314"
       enable-background="new    "
       inkscape:connector-curvature="0"
       style="opacity:0.5;fill:none;stroke:#020202;stroke-width:0.5" /><path
       id="path3657"
       d="M 1199.632,270.13 C 1109.502,180 1019.502,90 929.486,-0.016"
       enable-background="new    "
       inkscape:connector-curvature="0"
       style="opacity:0.5;fill:none;stroke:#020202;stroke-width:0.5" /><path
       id="path3659"
       d="M 1199.766,261.264 C 1112.502,174 1025.502,87 938.416,-0.086"
       enable-background="new    "
       inkscape:connector-curvature="0"
       style="opacity:0.5;fill:none;stroke:#020202;stroke-width:0.5" /><path
       id="path3661"
       d="M 1199.906,252.406 C 1115.502,168 1031.502,84 947.328,-0.172"
       enable-background="new    "
       inkscape:connector-curvature="0"
       style="opacity:0.5;fill:none;stroke:#020202;stroke-width:0.5" /><path
       id="path3663"
       d="M 1199.937,243.057 C 1118.502,162 1038.502,80 956.855,-0.228"
       enable-background="new    "
       inkscape:connector-curvature="0"
       style="opacity:0.5;fill:none;stroke:#020202;stroke-width:0.5" /><path
       id="path3665"
       d="M 1199.579,233.689 C 1121.502,156 1044.502,77 965.784,-0.292"
       enable-background="new    "
       inkscape:connector-curvature="0"
       style="opacity:0.5;fill:none;stroke:#020202;stroke-width:0.5" /><path
       id="path3667"
       d="M 1199.832,224.331 C 1124.502,149 1050.502,75 975.275,-0.227"
       enable-background="new    "
       inkscape:connector-curvature="0"
       style="opacity:0.5;fill:none;stroke:#020202;stroke-width:0.5" /><path
       id="path3669"
       d="M 1199.934,215.432 C 1127.502,143 1056.502,72 984.188,-0.314"
       enable-background="new    "
       inkscape:connector-curvature="0"
       style="opacity:0.5;fill:none;stroke:#020202;stroke-width:0.5" /><path
       id="path3671"
       d="M 1199.72,206.219 C 1130.502,137 1062.502,69 993.147,-0.354"
       enable-background="new    "
       inkscape:connector-curvature="0"
       style="opacity:0.5;fill:none;stroke:#020202;stroke-width:0.5" /><path
       id="path3673"
       d="M 1199.92,197.281 C 1133.502,132 1068.502,65 1002.645,-0.357"
       enable-background="new    "
       inkscape:connector-curvature="0"
       style="opacity:0.5;fill:none;stroke:#020202;stroke-width:0.5" /><path
       id="path3675"
       d="M 1199.531,187.055 C 1136.502,125 1074.502,62 1011.535,-0.465"
       enable-background="new    "
       inkscape:connector-curvature="0"
       style="opacity:0.5;fill:none;stroke:#020202;stroke-width:0.5" /><path
       id="path3677"
       d="M 1199.651,178.148 C 1140.502,119 1080.502,59 1021.032,-0.467"
       enable-background="new    "
       inkscape:connector-curvature="0"
       style="opacity:0.5;fill:none;stroke:#020202;stroke-width:0.5" /><path
       id="path3679"
       d="M 1199.992,169.492 C 1143.502,113 1086.502,56 1030.186,-0.316"
       enable-background="new    "
       inkscape:connector-curvature="0"
       style="opacity:0.5;fill:none;stroke:#020202;stroke-width:0.5" /><path
       id="path3681"
       d="M 1199.65,160.149 C 1146.502,107 1092.502,53 1039.14,-0.362"
       enable-background="new    "
       inkscape:connector-curvature="0"
       style="opacity:0.5;fill:none;stroke:#020202;stroke-width:0.5" /><path
       id="path3683"
       d="M 1199.522,150.146 C 1148.502,101 1100.502,49 1048.637,-0.365"
       enable-background="new    "
       inkscape:connector-curvature="0"
       style="opacity:0.5;fill:none;stroke:#020202;stroke-width:0.5" /><path
       id="path3685"
       d="M 1199.586,141.21 C 1151.502,95 1105.502,46 1057.545,-0.457"
       enable-background="new    "
       inkscape:connector-curvature="0"
       style="opacity:0.5;fill:none;stroke:#020202;stroke-width:0.5" /><path
       id="path3687"
       d="M 1199.947,132.446 C 1155.502,88 1111.502,44 1067.041,-0.46"
       enable-background="new    "
       inkscape:connector-curvature="0"
       style="opacity:0.5;fill:none;stroke:#020202;stroke-width:0.5" /><path
       id="path3689"
       d="M 1199.567,123.065 C 1158.502,82 1117.502,41 1076.191,-0.311"
       enable-background="new    "
       inkscape:connector-curvature="0"
       style="opacity:0.5;fill:none;stroke:#020202;stroke-width:0.5" /><path
       id="path3691"
       d="M 1199.865,114.366 C 1161.502,76 1123.502,38 1085.148,-0.354"
       enable-background="new    "
       inkscape:connector-curvature="0"
       style="opacity:0.5;fill:none;stroke:#020202;stroke-width:0.5" /><path
       id="path3693"
       d="M 1199.648,104.969 C 1164.502,70 1130.502,34 1094.645,-0.357"
       enable-background="new    "
       inkscape:connector-curvature="0"
       style="opacity:0.5;fill:none;stroke:#020202;stroke-width:0.5" /><path
       id="path3695"
       d="M 1199.938,95.881 C 1167.747,63.823 1135.587,31.733 1103.537,-0.465"
       enable-background="new    "
       inkscape:connector-curvature="0"
       style="opacity:0.5;fill:none;stroke:#020202;stroke-width:0.5" /><path
       id="path3697"
       d="M 1199.981,86.48 C 1170.999,57.498 1142.016,28.515 1113.034,-0.467"
       enable-background="new    "
       inkscape:connector-curvature="0"
       style="opacity:0.5;fill:none;stroke:#020202;stroke-width:0.5" /><path
       id="path3699"
       d="M 1199.763,77.26 C 1173.904,51.401 1148.045,25.542 1122.186,-0.317"
       enable-background="new    "
       inkscape:connector-curvature="0"
       style="opacity:0.5;fill:none;stroke:#020202;stroke-width:0.5" /><path
       id="path3701"
       d="M 1199.531,68.031 C 1176.733,45.233 1153.936,22.436 1131.138,-0.362"
       enable-background="new    "
       inkscape:connector-curvature="0"
       style="opacity:0.5;fill:none;stroke:#020202;stroke-width:0.5" /><path
       id="path3703"
       d="m 1199.907,58.678 c -19.748,-19.69 -39.506,-39.371 -59.271,-59.043"
       enable-background="new    "
       inkscape:connector-curvature="0"
       style="opacity:0.5;fill:none;stroke:#020202;stroke-width:0.5" /><path
       id="path3705"
       d="M 1199.954,49.747 C 1183.157,33.005 1166.353,16.271 1149.545,-0.457"
       enable-background="new    "
       inkscape:connector-curvature="0"
       style="opacity:0.5;fill:none;stroke:#020202;stroke-width:0.5" /><path
       id="path3707"
       d="M 1199.88,40.378 C 1186.268,26.765 1172.652,13.153 1159.041,-0.46"
       enable-background="new    "
       inkscape:connector-curvature="0"
       style="opacity:0.5;fill:none;stroke:#020202;stroke-width:0.5" /><path
       id="path3709"
       d="M 1199.617,31.117 C 1189.141,20.641 1178.666,10.165 1168.189,-0.311"
       enable-background="new    "
       inkscape:connector-curvature="0"
       style="opacity:0.5;fill:none;stroke:#020202;stroke-width:0.5" /><path
       id="path3711"
       d="m 1199.849,22.347 c -7.57,-7.571 -15.142,-15.141 -22.711,-22.711"
       enable-background="new    "
       inkscape:connector-curvature="0"
       style="opacity:0.5;fill:none;stroke:#020202;stroke-width:0.5" /><path
       id="path3713"
       d="m 1199.801,12.298 c -4.268,-4.266 -8.532,-8.532 -12.798,-12.797"
       enable-background="new    "
       inkscape:connector-curvature="0"
       style="opacity:0.5;fill:none;stroke:#020202;stroke-width:0.5" /></g></svg>