<?xml version="1.0" encoding="utf-8"?>
<!-- Generator: Adobe Illustrator 16.0.0, SVG Export Plug-In . SVG Version: 6.00 Build 0)  -->
<!DOCTYPE svg PUBLIC "-//W3C//DTD SVG 1.1//EN" "http://www.w3.org/Graphics/SVG/1.1/DTD/svg11.dtd">
<svg version="1.1" id="Layer_1" xmlns="http://www.w3.org/2000/svg" xmlns:xlink="http://www.w3.org/1999/xlink" x="0px" y="0px"
	 width="728.332px" height="230.887px" viewBox="0 0 728.332 230.887" enable-background="new 0 0 728.332 230.887"
	 xml:space="preserve">
<circle fill="#FFFFFF" cx="185.167" cy="207.792" r="1.833"/>
<circle fill="#FFFFFF" cx="582.666" cy="187.292" r="1.833"/>
<circle fill="#FFFFFF" cx="390" cy="151.709" r="1.166"/>
<circle fill="#FFFFFF" cx="479.332" cy="120.792" r="1.166"/>
<circle fill="#FFFFFF" cx="665.5" cy="156.126" r="1.166"/>
<circle fill="#FFFFFF" cx="139.584" cy="148.709" r="0.917"/>
<circle fill="#FFFFFF" cx="211.333" cy="76.959" r="0.917"/>
<circle fill="#FFFFFF" cx="180.292" cy="15.668" r="0.709"/>
<circle fill="#FFFFFF" cx="240.75" cy="0.709" r="0.709"/>
<circle fill="#FFFFFF" cx="285.5" cy="15.668" r="0.709"/>
<circle fill="#FFFFFF" cx="315.834" cy="76.959" r="0.797"/>
<circle fill="#FFFFFF" cx="207.875" cy="169.958" r="0.38"/>
<circle fill="#FFFFFF" cx="304.666" cy="209.626" r="0.38"/>
<circle fill="#FFFFFF" cx="548.381" cy="141.626" r="0.38"/>
<circle fill="#FFFFFF" cx="578.548" cy="201.292" r="0.38"/>
<circle fill="#FFFFFF" cx="725.334" cy="141.626" r="0.38"/>
<circle fill="#FFFFFF" cx="694.166" cy="51.506" r="0.38"/>
<circle fill="#FFFFFF" cx="555" cy="40.339" r="0.38"/>
<circle fill="#FFFFFF" cx="635.166" cy="21.459" r="0.38"/>
<circle fill="#FFFFFF" cx="494.714" cy="16.126" r="0.38"/>
<circle fill="#FFFFFF" cx="525.666" cy="75.839" r="0.38"/>
<circle fill="#FFFFFF" cx="237" cy="230.089" r="0.797"/>
<circle fill="#FFFFFF" cx="361.166" cy="45.792" r="1.296"/>
<circle fill="#FFFFFF" cx="75.708" cy="151.709" r="0.917"/>
<circle fill="#FFFFFF" cx="15.958" cy="180.542" r="0.917"/>
<circle fill="#FFFFFF" cx="0.833" cy="76.459" r="0.917"/>
<circle fill="#FFFFFF" cx="46.167" cy="45.792" r="1.192"/>
<circle fill="#FFFFFF" cx="105.667" cy="60.626" r="0.917"/>
</svg>
