<?xml version="1.0" encoding="utf-8"?>
<!-- Generator: Adobe Illustrator 16.0.0, SVG Export Plug-In . SVG Version: 6.00 Build 0)  -->
<!DOCTYPE svg PUBLIC "-//W3C//DTD SVG 1.1//EN" "http://www.w3.org/Graphics/SVG/1.1/DTD/svg11.dtd">
<svg version="1.1" id="Layer_1" xmlns="http://www.w3.org/2000/svg" xmlns:xlink="http://www.w3.org/1999/xlink" x="0px" y="0px"
	 width="32px" height="32px" viewBox="0 0 32 32" enable-background="new 0 0 32 32" xml:space="preserve">
<g>
	<path fill-rule="evenodd" clip-rule="evenodd" fill="#D35A31" d="M29.795,21.942c-0.598,0.865-1.418,1.091-2.456,1.082
		c-5.196-0.044-10.393-0.017-15.589-0.018c-1.801-0.001-2.329-0.535-2.329-2.333c0-5.197,0.023-10.394-0.021-15.59
		C9.39,4.046,9.607,3.222,10.481,2.629c6.438,0,12.876,0,19.313,0C29.795,9.066,29.795,15.504,29.795,21.942z M11.194,4.372
		c0,5.686,0,11.283,0,16.849c5.674,0,11.271,0,16.846,0c0-5.659,0-11.23,0-16.849C22.41,4.372,16.839,4.372,11.194,4.372z"/>
	<path fill-rule="evenodd" clip-rule="evenodd" fill="#D35A31" d="M2.629,10.481V9.392c0,0,4.692,0.027,5.877,0.027
		c0,0.579,0,1.083,0,1.664c-1.354,0-2.683,0-4.125,0c0,1.139,0,2.211,0,3.431c-0.656,0-1.204,0-1.751,0
		C2.629,13.17,2.629,10.481,2.629,10.481z"/>
	<path fill-rule="evenodd" clip-rule="evenodd" fill="#D35A31" d="M2.629,24.701c0.525,0,1.049,0,1.688,0c0,1.144,0,2.221,0,3.373
		c1.159,0,2.208,0,3.406,0c0,0.622,0,1.172,0,1.721c-1.698,0-3.396,0-5.094,0C2.629,28.098,2.629,26.399,2.629,24.701z"/>
	<path fill-rule="evenodd" clip-rule="evenodd" fill="#D35A31" d="M17.91,29.795c0-0.523,0-1.048,0-1.68c1.136,0,2.21,0,3.392,0
		c0-1.178,0-2.252,0-3.367c0.593,0,1.074,0,1.715,0c0,1.804-0.048,3.721-0.074,5.047C21.599,29.795,19.254,29.795,17.91,29.795z"/>
	<path fill-rule="evenodd" clip-rule="evenodd" fill="#D35A31" d="M2.629,16.212c0.522,0,1.045,0,1.634,0c0,2.256,0,4.451,0,6.792
		c-0.541,0-1.087,0-1.634,0C2.629,20.739,2.629,18.476,2.629,16.212z"/>
	<path fill-rule="evenodd" clip-rule="evenodd" fill="#D35A31" d="M9.42,29.795c0-0.522,0-1.045,0-1.635c2.256,0,4.453,0,6.792,0
		c0,0.541,0,1.088,0,1.635C13.948,29.795,11.684,29.795,9.42,29.795z"/>
</g>
</svg>
