<?xml version="1.0" encoding="utf-8"?>
<!-- Generator: Adobe Illustrator 16.0.0, SVG Export Plug-In . SVG Version: 6.00 Build 0)  -->
<!DOCTYPE svg PUBLIC "-//W3C//DTD SVG 1.1//EN" "http://www.w3.org/Graphics/SVG/1.1/DTD/svg11.dtd">
<svg version="1.1" id="Layer_1" opacity="0.2" xmlns="http://www.w3.org/2000/svg" xmlns:xlink="http://www.w3.org/1999/xlink"
	 x="0px" y="0px" width="824.691px" height="300px" viewBox="0 0 824.691 300" enable-background="new 0 0 824.691 300"
	 xml:space="preserve">
<polygon points="377.464,140.25 383.341,145.013 374.008,147.326 "/>
<polygon points="446.853,189.746 446.97,189.841 459.526,200.029 443.937,202.493 "/>
<polygon points="492.156,185.436 484.985,191.243 496.363,194.064 "/>
<path d="M474.014,109.879"/>
<line fill="none" x1="525.392" y1="130.729" x2="525.721" y2="130.499"/>
<path d="M422.598,106.136"/>
<g>
	<polygon points="90.189,245.889 106.017,247.482 111.41,243.307 100.511,198.046 	"/>
	<path d="M593.734,206.292c0,0-8.521,5.538-8.502,5.538l14.381,3.372L593.734,206.292z"/>
	<polygon points="531.992,229.291 535.303,231.854 545.019,230.875 538.683,201.512 	"/>
	<polygon points="356.628,222.688 358.65,224.762 362.758,210.747 	"/>
	<polygon points="358.653,224.762 363.166,224.762 376.307,224.762 362.762,210.747 	"/>
	<polygon points="233.93,185.495 225.104,192.654 236.062,194.389 234.015,185.43 	"/>
	<polygon points="211.018,180.709 212.694,175.73 202.07,179.313 	"/>
	<polygon points="166.127,226.132 169.007,213.096 155.179,211.451 	"/>
</g>
<path stroke="#777A9B" stroke-width="0.5" stroke-miterlimit="10" d="M805.014,194.93"/>
<path d="M422.598,116.565"/>
<g>
	<polygon points="283.509,103.015 242.733,78.768 198.711,101.232 192.034,95.899 179.732,108.002 98.714,12.693 0,135.561 
		95.379,159.945 144.24,142.918 194.188,150.775 242.219,135.976 284.903,144.796 341.365,135.437 292.222,96.059 	"/>
	<path d="M619.936,171.04l-3.565-35.44l-11.392-40.932l-0.727-10.692l-11.038-23.37h-0.023l-6.676-15.431l-5.767,15.431h0.023
		l-11.208,23.37v0.505l-0.779,10.378l-11.681,40.825l-5.068,35.355l0.053-0.046l-0.014,0.087l17.724-14.982
		c0.425,4.52,2.719,15.764,16.367,16.028c0.313,0.015,0.266,0.009,0.205,0.004c0.318,0.013,0.173-0.004,0.173-0.004v-0.03
		c0.349,0,0.683-0.019,1.016-0.035c0.016-0.002,0.032-0.002,0.049-0.002c0.335-0.02,0.661-0.049,0.983-0.082
		c0.145-0.016,0.288-0.031,0.432-0.049c0.188-0.023,0.375-0.049,0.559-0.078c10.475-1.578,12.746-10.533,13.467-15.031
		c0.056-0.284,0.104-0.557,0.146-0.814l16.686,15.077l-0.011-0.106L619.936,171.04z"/>
</g>
<g>
	<polygon points="285.928,200.559 285.949,200.536 285.928,200.51 	"/>
	<path d="M291.237,187.895l-1.076,0.125l0.409,2.697l-0.007,0.016l-0.718-4.812l-12.063-6.668l-10.492,8.964
		c-0.006,0.035,1.637,3.436,1.637,3.436l-2.58,1.699l-0.461,7.92l7.794,5.854l4.36-2.676l-0.895,0.555c0,0,1.242,4.004,1.307,4.118
		c0.058,0.122-1.04,6.976-1.04,6.976l0.751,8.811l2.04,1.232l1.732-1.52c0,0,0.174-6.529,0.174-6.598
		c0-0.08-0.596-9.614-0.596-9.614l0.67-4.341l-1.584,1.496l-0.523-0.332l-1.624-1.037l0,0l2.147,1.369c0,0,4.214-4.002,6.453-6.141
		l-1.104,1.111l1.183,1.497l6.058-1.466l3.398-6.862L291.237,187.895z M289.104,196.132l-0.688,1.981l0.688-1.986V196.132z"/>
</g>
<path d="M453.336,136.005l-2.495-4.807l1.548-0.45l-3.175-6.121l1.882-0.549l-5.308-10.223l-5.804,10.048l1.822,0.958l-3.271,5.663
	l1.431,0.75l-2.586,4.479l3.312,1.739l4.177-0.03v4.519c0,0.665,0.303,1.433,0.678,1.708c0.376,0.275,0.683-0.044,0.683-0.716v-5.52
	l2.188-0.016L453.336,136.005z"/>
<polygon points="742.784,224.04 742.666,224.135 730.111,234.322 745.699,236.787 "/>
<polygon points="697.481,219.729 704.653,225.537 693.274,228.359 "/>
<g>
	<polygon points="645.608,269.92 632.916,271.197 628.591,267.85 637.33,231.553 	"/>
	<polygon points="824.692,243.495 822.671,245.566 818.563,231.553 	"/>
	<polygon points="822.666,245.566 818.155,245.566 805.014,245.566 818.559,231.553 	"/>
	<polygon points="671.552,166.74 680.378,173.9 669.42,175.635 671.467,166.675 	"/>
	<polygon points="770.743,161.955 769.068,156.979 779.691,160.561 	"/>
</g>
<polygon points="178.438,296.684 187.72,261.38 191.072,278.2 204.203,228.258 215.238,285.084 219.265,269.764 223.455,291.333 
	220.822,293.188 216.672,292.581 208.845,298.098 194.623,296.021 190.182,298.396 "/>
<g>
	<polygon points="681.279,128.119 681.266,128.106 681.279,128.09 	"/>
	<path d="M674.899,124.018l2.034,4.107l3.625,0.877l0.708-0.896l-0.661-0.665c1.34,1.28,3.861,3.675,3.861,3.675l1.286-0.82l0,0
		l-0.974,0.62l-0.313,0.2l-0.947-0.896l0.4,2.598c0,0-0.356,5.706-0.356,5.753c0,0.041,0.104,3.949,0.104,3.949l1.037,0.909
		l1.222-0.738l0.45-5.272c0,0-0.657-4.101-0.622-4.174c0.038-0.069,0.78-2.465,0.78-2.465L686,130.448l2.608,1.601l4.665-3.503
		l-0.276-4.74l-1.544-1.016c0,0,0.983-2.036,0.98-2.057l-6.28-5.364l-7.219,3.991l-0.43,2.879l-0.006-0.009l0.245-1.615
		l-0.644-0.075L674.899,124.018z M679.377,125.467l0.411,1.189l-0.411-1.186V125.467z"/>
</g>
<path d="M13.724,218.51l4.955-9.548l-3.075-0.894l6.308-12.157l-3.738-1.091l10.541-20.307l11.529,19.959l-3.619,1.904l6.496,11.248
	l-2.841,1.49l5.137,8.896l-6.58,3.454l-8.295-0.06v8.976c0,1.319-0.602,2.847-1.346,3.392c-0.746,0.545-1.354-0.088-1.354-1.422
	v-10.965l-4.348-0.031L13.724,218.51z"/>
<path d="M775.184,17.781L757.8,26.387C746.625,14.983,733.654,1.71,733.654,1.71l-49.438,47.845l42.657,14.862l81.67-12.972
	L775.184,17.781z"/>
</svg>
