<?xml version="1.0" encoding="utf-8"?>
<!-- Generator: Adobe Illustrator 16.0.0, SVG Export Plug-In . SVG Version: 6.00 Build 0)  -->
<!DOCTYPE svg PUBLIC "-//W3C//DTD SVG 1.1//EN" "http://www.w3.org/Graphics/SVG/1.1/DTD/svg11.dtd">
<svg version="1.1" id="Layer_1" xmlns="http://www.w3.org/2000/svg" xmlns:xlink="http://www.w3.org/1999/xlink" x="0px" y="0px"
	 width="31.971px" height="31.971px" viewBox="0 0 31.971 31.971" enable-background="new 0 0 31.971 31.971" xml:space="preserve">
<g>
	<g>
		<g>
			<polygon fill="#F15B29" points="23.484,16.971 22.07,15.557 29.971,7.658 29.971,2 24.312,2 16.414,9.9 15,8.486 23.484,0 
				31.971,0 31.971,8.486 			"/>
		</g>
		<g>
			<polygon fill="#F15B29" points="18.111,28.826 3.145,13.859 13.414,10.208 14.084,12.093 6.797,14.684 17.287,25.174 
				19.878,17.888 21.763,18.558 			"/>
		</g>
		<g>
			<polygon fill="#F15B29" points="0,31.971 5.069,20.572 6.897,21.385 3.941,28.029 10.587,25.074 11.399,26.902 			"/>
		</g>
	</g>
	<g>
		
			<rect x="13.19" y="13.86" transform="matrix(-0.7187 -0.6953 0.6953 -0.7187 11.9786 40.5445)" fill="#F15B29" width="2" height="7.98"/>
	</g>
</g>
</svg>
