<?xml version="1.0" encoding="utf-8"?>
<!-- Generator: Adobe Illustrator 16.0.0, SVG Export Plug-In . SVG Version: 6.00 Build 0)  -->
<!DOCTYPE svg PUBLIC "-//W3C//DTD SVG 1.1//EN" "http://www.w3.org/Graphics/SVG/1.1/DTD/svg11.dtd">
<svg version="1.1" id="Layer_1" xmlns="http://www.w3.org/2000/svg" xmlns:xlink="http://www.w3.org/1999/xlink" x="0px" y="0px"
	 width="31.971px" height="31.971px" viewBox="0 0 31.971 31.971" enable-background="new 0 0 31.971 31.971" xml:space="preserve">
<g>
	<g>
		<path fill="#F15C2B" d="M15.985,31.985c-8.821,0-16-7.178-16-16c0-8.821,7.179-16,16-16c8.822,0,16,7.179,16,16
			C31.985,24.807,24.808,31.985,15.985,31.985z M15.985,1.985c-7.72,0-14,6.28-14,14c0,7.721,6.28,14,14,14c7.721,0,14-6.279,14-14
			C29.985,8.265,23.705,1.985,15.985,1.985z"/>
	</g>
	<g>
		<polygon fill="#F15C2B" points="17.53,28.544 18.934,19.569 12.415,16.294 16.307,11.489 14.941,11.004 9.646,12.22 6.417,9.75 
			7.632,8.162 10.114,10.06 15.062,8.924 19.641,10.552 15.532,15.622 21.135,18.437 20.354,23.427 23.947,20.293 25.976,12.745 
			27.907,13.265 25.721,21.4 		"/>
	</g>
	<g>
		<polygon fill="#F15C2B" points="10.461,25.162 8.498,24.777 9.164,21.388 5.12,20.98 5.321,18.99 11.549,19.618 		"/>
	</g>
</g>
</svg>
