<?xml version="1.0" encoding="utf-8"?>
<!-- Generator: Adobe Illustrator 16.0.0, SVG Export Plug-In . SVG Version: 6.00 Build 0)  -->
<!DOCTYPE svg PUBLIC "-//W3C//DTD SVG 1.1//EN" "http://www.w3.org/Graphics/SVG/1.1/DTD/svg11.dtd">
<svg version="1.1" id="Layer_1" xmlns="http://www.w3.org/2000/svg" xmlns:xlink="http://www.w3.org/1999/xlink" x="0px" y="0px"
	 width="170.08px" height="56.689px" viewBox="0 0 170.08 56.689" enable-background="new 0 0 170.08 56.689" xml:space="preserve">
<path fill="#DE5027" d="M94.826,45.555l6.413,5.795l-1.356-13.085l-4.368-15.114l-0.275-3.929l-4.236-8.61h-0.008l-2.563-5.697
	l-2.215,5.697h0.01l-4.187,8.591v0.187l-0.358,3.832l-4.515,15.075l-1.96,13.054l6.805-5.752c0.163,1.735,1.043,6.053,6.285,6.154
	c0.174,0.008,0.057,0,0.057,0V51.74C93.767,51.722,94.583,47.276,94.826,45.555z"/>
<path fill="#E04F26" d="M94.826,45.555l6.413,5.795l-1.356-13.085l-4.368-15.114l-0.275-3.929l-4.236-8.61h-0.008l-2.563-5.697
	l-2.215,5.697h0.01l-4.187,8.591v0.187l-0.358,3.832l-4.515,15.075l-1.96,13.054l6.805-5.752c0.163,1.735,1.043,6.053,6.285,6.154
	c0.174,0.008,0.057,0,0.057,0V51.74C93.767,51.722,94.583,47.276,94.826,45.555z"/>
<polygon fill="#606060" points="88.431,3.008 88.431,8.934 86.217,8.934 "/>
<polygon fill="#7C7A7B" points="88.431,3.008 90.994,8.934 88.431,8.934 "/>
<polygon fill="#E06226" points="101.263,51.335 99.894,37.727 95.8,39.668 "/>
<polygon fill="#DF5A26" points="99.894,37.727 94.378,17.906 95.8,39.668 "/>
<polygon fill="#E04F26" points="94.125,44.604 95.8,39.668 101.263,51.335 "/>
<polygon fill="#E04F26" points="75.192,51.335 77.138,37.76 81.219,39.734 "/>
<polygon fill="#E06226" points="77.138,37.76 82.792,17.997 81.219,39.734 "/>
<polygon fill="#E06226" points="75.192,51.335 82.858,44.604 81.219,39.734 "/>
<g>
	<path fill="#FFFFFF" d="M104.981,17.931h2.672v21.228h13.343v2.47h-16.015V17.931z"/>
	<path fill="#FFFFFF" d="M133.824,17.756h2.504l10.802,23.871h-2.878l-2.774-6.261h-12.904l-2.809,6.261h-2.742L133.824,17.756z
		 M140.429,32.962l-5.387-12.087l-5.423,12.087H140.429z"/>
	<path fill="#FFFFFF" d="M149.153,17.931h10.092c2.712,0,4.844,0.78,6.195,2.096c0.98,1.014,1.529,2.268,1.529,3.793v0.066
		c0,3.082-1.898,4.67-3.764,5.484c2.811,0.847,5.082,2.471,5.082,5.721v0.066c0,4.069-3.424,6.47-8.602,6.47h-10.535V17.931H149.153
		z M158.806,28.492c3.219,0,5.452-1.453,5.452-4.23v-0.069c0-2.338-1.862-3.859-5.247-3.859h-7.215v8.159H158.806z M159.754,39.228
		c3.595,0,5.824-1.597,5.824-4.233v-0.072c0-2.57-2.167-4.063-6.298-4.063h-7.484v8.368H159.754z"/>
</g>
<polygon fill="#E5AC61" points="88.692,17.906 88.692,8.934 86.226,8.934 81.922,17.906 "/>
<polygon fill="#EDC08F" points="95.239,17.906 88.438,17.906 88.438,8.934 91.002,8.934 "/>
<polygon fill="#E04F26" points="88.692,17.906 81.922,17.906 81.922,18.1 80.297,39.734 81.922,44.481 81.922,44.604 81.966,44.604 
	81.994,44.69 81.994,44.604 88.692,44.604 "/>
<polygon fill="#E37526" points="95.239,17.906 88.438,17.906 88.438,44.604 94.987,44.604 96.722,39.668 "/>
<path fill="#C82336" d="M81.971,44.609c0,0-0.191,7.011,6.366,7.144c0.174,0.008,0.104,0,0.104,0v-7.144H81.971z"/>
<path fill="#EC2227" d="M88.411,51.741c6.313,0,6.527-7.133,6.527-7.133h-6.555"/>
<polygon fill="#606060" points="81.182,42 81.889,44.523 94.972,44.419 95.788,42 "/>
<polygon fill="#7C7A7B" points="88.429,42.35 88.429,44.69 94.972,44.682 95.788,42.35 "/>
<g>
	<path fill="#FFFFFF" d="M1.429,30.029v-0.062c0-6.473,5.105-11.773,12.131-11.773c7.024,0,12.064,5.235,12.064,11.707v0.066
		c0,6.472-5.105,11.771-12.13,11.771C6.47,41.737,1.429,36.502,1.429,30.029z M20.389,30.029v-0.062
		c0-3.904-2.862-7.156-6.895-7.156c-4.032,0-6.83,3.188-6.83,7.09v0.066c0,3.899,2.862,7.152,6.896,7.152
		C17.591,37.119,20.389,33.934,20.389,30.029z"/>
	<path fill="#FFFFFF" d="M27.038,18.583h5.367l4.714,15.415l5.107-15.479h4.292l5.106,15.479l4.716-15.415h5.234l-7.771,22.926
		h-4.359l-5.137-14.893l-5.139,14.893H34.81L27.038,18.583z"/>
	<path fill="#FFFFFF" d="M65.529,18.583h5.009v22.765h-5.009V18.583z"/>
</g>
</svg>
