<?xml version="1.0" encoding="utf-8"?>
<!-- Generator: Adobe Illustrator 16.0.0, SVG Export Plug-In . SVG Version: 6.00 Build 0)  -->
<!DOCTYPE svg PUBLIC "-//W3C//DTD SVG 1.1//EN" "http://www.w3.org/Graphics/SVG/1.1/DTD/svg11.dtd">
<svg version="1.1" id="Layer_1" xmlns="http://www.w3.org/2000/svg" xmlns:xlink="http://www.w3.org/1999/xlink" x="0px" y="0px"
	 width="100px" height="100px" viewBox="0 0 100 100" enable-background="new 0 0 100 100" xml:space="preserve">
<g>
	<g>
		<g>
			<circle id="XMLID_1_" fill="#F15B2A" cx="49.543" cy="49.939" r="47.907"/>
		</g>
		<g>
			<defs>
				<circle id="SVGID_1_" cx="49.543" cy="49.939" r="47.907"/>
			</defs>
			<clipPath id="SVGID_2_">
				<use xlink:href="#SVGID_1_"  overflow="visible"/>
			</clipPath>
			
				<linearGradient id="SVGID_3_" gradientUnits="userSpaceOnUse" x1="291.8516" y1="-399.4229" x2="337.5445" y2="-353.7299" gradientTransform="matrix(1 0 0 -1 -281.5996 -303.9004)">
				<stop  offset="0" style="stop-color:#6E6F71"/>
				<stop  offset="1" style="stop-color:#231F20"/>
			</linearGradient>
			<polygon opacity="0.3" clip-path="url(#SVGID_2_)" fill="url(#SVGID_3_)" enable-background="new    " points="62.508,79.193 
				62.508,78.145 55.662,73.391 55.662,72.083 55.662,67.602 64.85,54.605 64.85,51.268 67.795,51.268 67.813,51.268 67.813,41.507 
				67.795,41.507 67.031,41.507 67.039,41.484 67.038,41.484 67.607,38.099 68.744,37.573 68.997,35.133 67.715,35.126 
				68.964,28.914 68.997,21.267 64.85,14.861 61.63,14.869 58.811,16.55 36.299,10.435 28.498,25.062 27.819,36.184 28.482,35.861 
				28.66,37.573 29.26,37.851 30.324,41.507 29.587,41.507 29.587,51.268 32.555,51.268 32.921,54.152 41.74,67.6 41.74,71.533 
				41.74,73.391 34.895,78.145 34.895,79.193 24.837,79.801 27.958,91.652 50.42,95.227 70.85,93.965 70.85,79.193 			"/>
		</g>
		<g>
			<defs>
				<circle id="SVGID_4_" cx="49.543" cy="49.939" r="47.907"/>
			</defs>
			<clipPath id="SVGID_5_">
				<use xlink:href="#SVGID_4_"  overflow="visible"/>
			</clipPath>
			<g clip-path="url(#SVGID_5_)">
				<g>
					<g>
						<g>
							<rect x="43.144" y="64.434" fill="#E4E2D8" width="13.92" height="14.2"/>
							<rect x="43.144" y="64.434" opacity="0.2" fill="#C05D3E" enable-background="new    " width="13.92" height="14.2"/>
							<polygon opacity="0.1" fill="#C05D3E" enable-background="new    " points="43.144,64.939 43.144,70.682 44.84,73.082 
								50.104,73.082 55.368,73.082 57.064,70.682 57.064,64.939 							"/>
						</g>
						<g>
							<rect x="39.957" y="77.792" fill="#E4E2D8" width="20.294" height="20.021"/>
							<rect x="39.957" y="77.792" opacity="0.2" fill="#C05D3E" enable-background="new    " width="20.294" height="20.021"/>
						</g>
					</g>
					<g>
						<rect x="30.99" y="40.105" fill="#E4E2D8" width="3.241" height="9.759"/>
						<rect x="30.99" y="40.105" opacity="0.2" fill="#C05D3E" enable-background="new    " width="3.241" height="9.759"/>
					</g>
					<g>
						<rect x="65.956" y="40.105" fill="#E4E2D8" width="3.241" height="9.759"/>
						<rect x="65.956" y="40.105" opacity="0.2" fill="#C05D3E" enable-background="new    " width="3.241" height="9.759"/>
					</g>
					<g>
						<polygon fill="#E4E2D8" points="55.236,19.865 50.104,19.865 44.972,19.865 33.957,28.95 33.957,53.203 44.84,68.598 
							50.104,68.598 55.368,68.598 66.251,53.203 66.251,28.95 						"/>
						<polygon opacity="0.2" fill="#C05D3E" enable-background="new    " points="55.236,19.865 50.104,19.865 44.972,19.865 
							33.957,28.95 33.957,53.203 44.84,68.598 50.104,68.598 55.368,68.598 66.251,53.203 66.251,28.95 						"/>
					</g>
					<polygon opacity="0.1" fill="#555253" enable-background="new    " points="48.337,52.268 48.337,53.229 50.104,52.749 
						51.871,52.749 51.871,52.268 					"/>
					<path opacity="0.3" fill="#231F20" enable-background="new    " d="M51.871,52.268c0,0-0.057,0.006-0.152,0.014
						c-0.097,0.005-0.234,0.017-0.4,0.023c-0.164,0.006-0.356,0.016-0.565,0.021c-0.206,0.005-0.427,0.006-0.648,0.007
						c-0.221-0.001-0.441-0.002-0.647-0.007c-0.208-0.005-0.4-0.015-0.566-0.021c-0.167-0.007-0.303-0.019-0.4-0.023
						c-0.097-0.008-0.152-0.014-0.152-0.014s0.055-0.004,0.152-0.012c0.097-0.006,0.234-0.018,0.4-0.021
						c0.166-0.006,0.357-0.018,0.566-0.021c0.207-0.006,0.427-0.007,0.647-0.008c0.222,0.001,0.442,0.002,0.648,0.008
						c0.209,0.004,0.401,0.016,0.565,0.021c0.166,0.004,0.305,0.017,0.4,0.022C51.814,52.264,51.871,52.268,51.871,52.268z"/>
					<polygon opacity="0.2" fill="#C05D3E" enable-background="new    " points="51.871,52.268 48.337,52.268 48.715,40.061 
						51.493,40.061 					"/>
				</g>
				
					<linearGradient id="SVGID_6_" gradientUnits="userSpaceOnUse" x1="315.6182" y1="-362.7393" x2="363.5036" y2="-362.7393" gradientTransform="matrix(1 0 0 -1 -281.5996 -303.9004)">
					<stop  offset="0" style="stop-color:#555253"/>
					<stop  offset="1" style="stop-color:#E4E2D8;stop-opacity:0"/>
				</linearGradient>
				<polygon opacity="0.2" fill="url(#SVGID_6_)" enable-background="new    " points="50.104,19.865 44.972,19.865 33.957,28.95 
					33.957,40.105 30.99,40.105 30.99,49.865 33.957,49.865 33.957,53.203 43.144,66.197 43.144,70.682 43.144,77.792 
					39.957,77.792 39.957,97.813 50.1,97.813 				"/>
				
					<linearGradient id="SVGID_7_" gradientUnits="userSpaceOnUse" x1="331.7002" y1="-362.7393" x2="360.4826" y2="-362.7393" gradientTransform="matrix(1 0 0 -1 -281.5996 -303.9004)">
					<stop  offset="0" style="stop-color:#FFFFFF"/>
					<stop  offset="1" style="stop-color:#E4E2D8;stop-opacity:0"/>
				</linearGradient>
				<polygon opacity="0.1" fill="url(#SVGID_7_)" enable-background="new    " points="50.1,19.865 55.232,19.865 66.247,28.95 
					66.247,40.105 69.215,40.105 69.215,49.865 66.247,49.865 66.247,53.203 57.063,66.197 57.063,70.682 57.063,77.792 
					60.247,77.792 60.247,97.813 50.104,97.813 				"/>
				
					<linearGradient id="SVGID_8_" gradientUnits="userSpaceOnUse" x1="336.3076" y1="-337.3311" x2="348.9076" y2="-324.731" gradientTransform="matrix(1 0 0 -1 -281.5996 -303.9004)">
					<stop  offset="0" style="stop-color:#FFFFFF"/>
					<stop  offset="1" style="stop-color:#E4E2D8;stop-opacity:0"/>
				</linearGradient>
				<polygon opacity="0.3" fill="url(#SVGID_8_)" enable-background="new    " points="50.104,40.061 50.1,19.865 55.232,19.865 
					66.247,28.95 66.251,40.061 				"/>
				
					<linearGradient id="SVGID_9_" gradientUnits="userSpaceOnUse" x1="321.0176" y1="-368.6826" x2="337.1102" y2="-368.6826" gradientTransform="matrix(1 0 0 -1 -281.5996 -303.9004)">
					<stop  offset="0" style="stop-color:#FFFFFF"/>
					<stop  offset="1" style="stop-color:#E4E2D8;stop-opacity:0"/>
				</linearGradient>
				<polygon opacity="0.1" fill="url(#SVGID_9_)" enable-background="new    " points="39.417,60.967 44.805,68.598 50.1,68.598 
					50.104,60.967 				"/>
				
					<linearGradient id="SVGID_10_" gradientUnits="userSpaceOnUse" x1="3541.6582" y1="-368.6826" x2="3557.7163" y2="-368.6826" gradientTransform="matrix(-1 0 0 -1 3602.4258 -303.9004)">
					<stop  offset="0" style="stop-color:#FFFFFF"/>
					<stop  offset="1" style="stop-color:#E4E2D8;stop-opacity:0"/>
				</linearGradient>
				<polygon opacity="0.3" fill="url(#SVGID_10_)" enable-background="new    " points="60.768,60.967 55.4,68.598 50.104,68.598 
					50.104,60.967 				"/>
				<polygon fill="#C05D3E" points="63.034,13.466 60.212,15.148 50.104,10.435 36.299,10.435 29.222,25.062 29.222,34.781 
					30.059,34.374 34.017,47.972 34.017,32.449 56.746,21.394 66.251,33.087 66.251,47.972 70.366,27.512 70.398,19.865 
					66.251,13.459 				"/>
				<polygon opacity="0.1" fill="#FFFFFF" enable-background="new    " points="56.746,21.394 63.034,13.466 66.251,13.459 				"/>
				<polygon opacity="0.2" fill="#FFFFFF" enable-background="new    " points="66.251,33.087 70.398,19.865 66.251,13.459 
					56.746,21.394 				"/>
				<polygon opacity="0.1" fill="#555253" enable-background="new    " points="36.299,10.435 29.222,25.062 29.222,34.781 
					30.059,34.374 34.017,47.972 34.017,32.449 56.746,21.394 				"/>
				<polygon opacity="0.1" fill="#555253" enable-background="new    " points="29.222,25.062 29.222,34.781 30.059,34.374 
					34.017,47.972 34.017,32.449 				"/>
				<polygon opacity="0.1" fill="#555253" enable-background="new    " points="60.212,15.148 63.034,13.466 56.746,21.394 				"/>
				
					<linearGradient id="SVGID_11_" gradientUnits="userSpaceOnUse" x1="334.2588" y1="-331.1406" x2="374.7206" y2="-331.1406" gradientTransform="matrix(1 0 0 -1 -281.5996 -303.9004)">
					<stop  offset="0" style="stop-color:#555253"/>
					<stop  offset="1" style="stop-color:#E4E2D8;stop-opacity:0"/>
				</linearGradient>
				<polygon opacity="0.2" fill="url(#SVGID_11_)" enable-background="new    " points="50.1,24.625 50.1,25.142 56.746,22.954 
					66.251,33.087 56.746,21.394 				"/>
				<g id="wayfarer_1_">
					<path fill="#38363A" d="M60.253,33.731l-4.448,0.925l-4.291,1.494l-1.41,0.21l-1.408-0.21l-4.291-1.494l-4.447-0.925H29.809
						l0.253,2.439l1.136,0.526l0.57,3.386l1.153,3.849l3.955,2.04h5.458l4.227-2.745l1.45-3.144l0.424-0.922l0.408-0.886
						l1.261-0.106l1.263,0.106l0.406,0.886l1.875,4.066l4.229,2.745h5.456l3.955-2.04l1.153-3.849l0.57-3.386l1.135-0.526
						l0.252-2.439H60.253z M46.677,38.926l-0.45,1.157l-1.022,2.629l-3.281,2.439h-4.669l-3.197-1.599l-1.136-3.491v-3.239
						l1.179-1.809h5.511l4.248,0.758l2.818,1.135L46.677,38.926L46.677,38.926z M67.287,40.061l-1.137,3.491l-3.196,1.599h-4.67
						l-3.279-2.439l-1.474-3.786v-2.019l2.818-1.135l4.248-0.758h5.51l1.18,1.809V40.061L67.287,40.061z"/>
					<polygon opacity="0.2" fill="#FFFFFF" enable-background="new    " points="46.677,38.926 45.204,42.711 41.923,45.151 
						37.254,45.151 34.057,43.552 32.921,40.061 32.921,36.822 34.1,35.014 39.611,35.014 43.859,35.771 46.677,36.907 					"/>
					<g>
						<polygon fill="#A9AFB6" points="31.804,35.692 30.716,35.228 31.887,35.057 32.975,35.522 						"/>
						<polygon fill="#E4E2D8" points="30.716,35.228 31.887,35.057 32.975,35.522 						"/>
					</g>
					<g>
						<polygon fill="#A9AFB6" points="68.368,35.692 69.455,35.228 68.286,35.057 67.197,35.522 						"/>
						<polygon fill="#E4E2D8" points="69.455,35.228 68.286,35.057 67.197,35.522 						"/>
					</g>
					<path opacity="0.1" fill="#E4E2D8" enable-background="new    " d="M48.695,36.15l-4.291-1.494l-4.447-0.925H29.809
						l0.253,2.439l1.136,0.526l0.57,3.386l1.153,3.849l3.955,2.04h5.458l4.227-2.745l1.874-4.066l0.408-0.886l1.261-0.106V36.36
						L48.695,36.15z M46.677,38.926l-1.473,3.786l-3.281,2.439h-4.669l-3.197-1.599l-1.136-3.491v-3.239l1.179-1.809h5.511
						l4.248,0.758l2.818,1.135V38.926z"/>
					<g opacity="0.5">
						<polygon fill="#E4E2D8" points="49.956,37.35 48.558,37.071 48.428,37.045 48.389,37.029 44.17,35.328 44.259,35.353 
							39.857,34.212 39.957,34.222 29.809,33.731 39.957,33.24 39.984,33.238 40.057,33.25 44.549,33.96 44.561,33.962 
							44.638,33.985 49.001,35.271 48.833,35.229 50.251,35.371 						"/>
					</g>
					<g opacity="0.5">
						<polygon fill="#E4E2D8" points="70.398,33.731 60.253,34.222 60.354,34.212 55.947,35.353 56.037,35.328 51.82,37.029 
							51.779,37.045 51.65,37.071 50.251,37.35 49.956,35.371 51.376,35.229 51.208,35.271 55.568,33.985 55.646,33.962 
							55.659,33.96 60.152,33.25 60.227,33.239 60.253,33.24 						"/>
					</g>
					<polygon opacity="0.3" fill="#6FA1B8" enable-background="new    " points="67.287,40.061 66.15,43.552 62.954,45.151 
						60.598,45.151 58.284,45.151 55.005,42.711 53.991,40.105 53.531,38.926 53.531,36.907 56.35,35.771 60.598,35.014 
						66.107,35.014 67.287,36.822 					"/>
					<polygon opacity="0.2" fill="#6FA1B8" enable-background="new    " points="60.598,35.014 66.107,35.014 67.287,36.822 
						67.287,40.061 60.598,40.061 					"/>
					<polyline opacity="0.3" fill="#FFFFFF" enable-background="new    " points="53.991,40.105 60.598,40.061 60.598,45.151 
						58.284,45.151 55.005,42.711 53.991,40.105 					"/>
					<polygon opacity="0.3" fill="#6FA1B8" enable-background="new    " points="53.991,40.105 53.531,38.926 53.531,36.907 
						56.35,35.771 60.598,35.014 60.598,40.061 					"/>
					<polygon opacity="0.2" fill="#AEB15A" enable-background="new    " points="39.611,40.061 32.921,40.061 32.921,36.822 
						34.1,35.014 39.611,35.014 					"/>
					<polyline opacity="0.1" fill="#6FA1B8" enable-background="new    " points="46.217,40.105 45.204,42.711 41.924,45.151 
						39.611,45.151 39.611,40.061 46.217,40.105 					"/>
					<polygon opacity="0.2" fill="#6FA1B8" enable-background="new    " points="39.611,40.061 39.611,35.014 43.859,35.771 
						46.677,36.907 46.677,38.926 46.217,40.105 					"/>
					<polygon opacity="0.1" fill="#E4E2D8" enable-background="new    " points="46.227,40.083 45.204,42.711 41.923,45.151 
						37.254,45.151 34.057,43.552 32.921,40.061 31.768,40.083 32.921,43.931 36.876,45.971 42.334,45.971 46.561,43.227 
						48.011,40.083 					"/>
					<polygon opacity="0.1" fill="#E4E2D8" enable-background="new    " points="52.197,40.083 53.648,43.227 57.877,45.971 
						63.334,45.971 67.288,43.931 68.441,40.083 67.288,40.061 66.152,43.552 62.955,45.151 58.286,45.151 55.006,42.711 
						53.982,40.083 					"/>
				</g>
				<g>
					<polygon fill="#E4E2D8" points="63.911,77.792 63.911,76.741 57.064,71.988 57.064,77.792 57.064,88.309 50.104,97.813 
						43.144,88.309 43.144,77.792 43.144,71.988 36.298,76.741 36.298,77.792 27.958,77.792 27.958,98.501 50.104,98.501 
						72.25,98.501 72.25,77.792 					"/>
					<polygon fill="#E4E2D8" points="50.104,97.813 57.064,88.309 57.064,77.792 72.25,77.792 72.25,98.501 50.104,98.501 					"/>
					<polygon fill="#E4E2D8" points="50.104,97.813 43.144,88.309 43.144,77.792 27.958,77.792 27.958,98.501 50.104,98.501 					
						"/>
					
						<linearGradient id="SVGID_12_" gradientUnits="userSpaceOnUse" x1="313.0664" y1="-392.0469" x2="368.5457" y2="-392.0469" gradientTransform="matrix(1 0 0 -1 -281.5996 -303.9004)">
						<stop  offset="0" style="stop-color:#555253"/>
						<stop  offset="1" style="stop-color:#E4E2D8;stop-opacity:0"/>
					</linearGradient>
					<polygon opacity="0.2" fill="url(#SVGID_12_)" enable-background="new    " points="50.104,97.813 43.144,88.309 
						43.144,77.792 27.958,77.792 27.958,98.501 50.104,98.501 					"/>
					<polygon opacity="0.1" fill="#555253" enable-background="new    " points="36.299,92.6 43.144,88.309 50.104,97.813 
						42.914,90.747 					"/>
					<polygon opacity="0.1" fill="#555253" enable-background="new    " points="63.543,92.6 63.91,90.116 62.078,91.449 
						57.063,88.309 50.1,97.813 57.29,90.747 					"/>
					
						<linearGradient id="SVGID_13_" gradientUnits="userSpaceOnUse" x1="321.3213" y1="-421.6509" x2="321.3213" y2="-386.3194" gradientTransform="matrix(1 0 0 -1 -281.5996 -303.9004)">
						<stop  offset="0" style="stop-color:#FFFFFF"/>
						<stop  offset="1" style="stop-color:#E4E2D8"/>
					</linearGradient>
					<polygon fill="url(#SVGID_13_)" points="43.144,71.988 36.298,76.741 36.299,92.6 43.144,88.309 					"/>
					
						<linearGradient id="SVGID_14_" gradientUnits="userSpaceOnUse" x1="342.3887" y1="-405.6577" x2="342.3887" y2="-378.1169" gradientTransform="matrix(1 0 0 -1 -281.5996 -303.9004)">
						<stop  offset="0" style="stop-color:#FFFFFF"/>
						<stop  offset="1" style="stop-color:#E4E2D8"/>
					</linearGradient>
					<polygon fill="url(#SVGID_14_)" points="57.064,71.988 63.911,76.741 63.91,90.116 64.512,91.49 62.078,91.449 57.064,88.309 
											"/>
					<polygon fill="#FFFFFF" points="63.91,90.116 64.512,91.49 62.078,91.449 					"/>
				</g>
			</g>
		</g>
	</g>
</g>
</svg>
