<?xml version="1.0" encoding="utf-8"?>
<!-- Generator: Adobe Illustrator 16.0.0, SVG Export Plug-In . SVG Version: 6.00 Build 0)  -->
<!DOCTYPE svg PUBLIC "-//W3C//DTD SVG 1.1//EN" "http://www.w3.org/Graphics/SVG/1.1/DTD/svg11.dtd">
<svg version="1.1" id="Layer_1" xmlns="http://www.w3.org/2000/svg" xmlns:xlink="http://www.w3.org/1999/xlink" x="0px" y="0px"
	 width="35.25px" height="35.313px" viewBox="0 0 35.25 35.313" enable-background="new 0 0 35.25 35.313" xml:space="preserve">
<path fill="#F75330" d="M17.625,0C7.907,0,0,6.309,0,14.062C0,19.536,3.949,24.278,9.686,26.6l-0.561,8.712l7.647-7.223
	c0.285,0.012,0.565,0.034,0.853,0.034c9.719,0,17.625-6.309,17.625-14.062S27.344,0,17.625,0z M17.625,24.125
	C10.112,24.125,4,19.611,4,14.062C4,8.514,10.112,4,17.625,4C25.139,4,31.25,8.514,31.25,14.062
	C31.25,19.611,25.139,24.125,17.625,24.125z"/>
</svg>
