<?xml version="1.0" encoding="utf-8"?>
<!-- Generator: Adobe Illustrator 16.0.0, SVG Export Plug-In . SVG Version: 6.00 Build 0)  -->
<!DOCTYPE svg PUBLIC "-//W3C//DTD SVG 1.1//EN" "http://www.w3.org/Graphics/SVG/1.1/DTD/svg11.dtd">
<svg version="1.1" id="Layer_1" xmlns="http://www.w3.org/2000/svg" xmlns:xlink="http://www.w3.org/1999/xlink" x="0px" y="0px"
	 width="27.684px" height="27.266px" viewBox="0 0 27.684 27.266" enable-background="new 0 0 27.684 27.266" xml:space="preserve">
<g id="yy4pFF.tif">
	<g>
		<path fill="#707070" d="M12.154,0c1.119,0,2.238,0,3.357,0c0.338,0.94,0.668,1.884,1.021,2.818
			c0.044,0.118,0.184,0.231,0.308,0.284c0.798,0.34,1.601,0.669,2.407,0.985c0.124,0.048,0.304,0.061,0.42,0.009
			c0.845-0.376,1.681-0.77,2.514-1.168c0.184-0.087,0.305-0.094,0.461,0.065c0.646,0.654,1.304,1.299,1.97,1.935
			c0.157,0.15,0.168,0.267,0.076,0.451c-0.407,0.816-0.794,1.645-1.203,2.461c-0.085,0.17-0.056,0.288,0.017,0.45
			c0.338,0.751,0.669,1.506,0.964,2.272c0.086,0.224,0.192,0.333,0.412,0.406c0.93,0.314,1.853,0.644,2.779,0.969
			c0,1.101,0,2.187,0,3.287c-0.951,0.332-1.9,0.655-2.841,1.001c-0.129,0.047-0.255,0.191-0.313,0.32
			c-0.344,0.771-0.657,1.557-1.003,2.327c-0.074,0.165-0.099,0.282-0.014,0.451c0.408,0.815,0.795,1.645,1.203,2.461
			c0.093,0.188,0.075,0.303-0.08,0.45c-0.65,0.619-1.294,1.246-1.922,1.889c-0.177,0.181-0.31,0.209-0.54,0.096
			c-0.819-0.4-1.648-0.783-2.482-1.155c-0.115-0.051-0.294-0.037-0.417,0.012c-0.808,0.315-1.609,0.645-2.407,0.984
			c-0.124,0.053-0.264,0.166-0.308,0.283c-0.353,0.938-0.683,1.88-1.021,2.82c-1.119,0-2.238,0-3.357,0
			c-0.341-0.95-0.675-1.903-1.03-2.85c-0.041-0.106-0.178-0.206-0.294-0.255c-0.798-0.338-1.605-0.65-2.399-0.997
			c-0.175-0.075-0.294-0.077-0.459,0.001c-0.822,0.395-1.654,0.77-2.476,1.165c-0.201,0.098-0.323,0.092-0.486-0.075
			c-0.637-0.647-1.285-1.284-1.944-1.908c-0.17-0.161-0.177-0.281-0.078-0.479c0.409-0.815,0.805-1.638,1.19-2.465
			c0.05-0.106,0.044-0.27,0-0.381c-0.33-0.813-0.674-1.62-1.024-2.424c-0.046-0.104-0.148-0.222-0.252-0.259
			C1.938,15.895,0.968,15.566,0,15.232c0-1.099,0-2.197,0-3.297c0.968-0.334,1.938-0.663,2.9-1.011
			c0.11-0.04,0.211-0.174,0.261-0.289c0.344-0.783,0.663-1.577,1.015-2.356c0.077-0.171,0.08-0.289,0-0.45
			C3.774,7.02,3.392,6.204,2.988,5.398C2.89,5.202,2.894,5.081,3.064,4.92c0.66-0.625,1.308-1.261,1.943-1.909
			c0.163-0.166,0.284-0.176,0.486-0.079C6.315,3.33,7.148,3.702,7.969,4.1C8.153,4.189,8.282,4.16,8.46,4.083
			c0.785-0.338,1.583-0.648,2.371-0.98c0.116-0.049,0.253-0.147,0.294-0.256C11.479,1.902,11.813,0.95,12.154,0z M19.351,13.591
			c-0.001-3.011-2.457-5.426-5.519-5.426c-3.047,0-5.516,2.413-5.518,5.393c-0.002,3.02,2.448,5.443,5.501,5.443
			C16.887,19.001,19.352,16.591,19.351,13.591z"/>
	</g>
</g>
</svg>
